<svg width="76" height="61" viewBox="0 0 76 61" fill="none" xmlns="http://www.w3.org/2000/svg">
<path d="M34.211 3.39773L34.7329 1.5H32.7647H16.75H15.7371L15.3586 2.43958L5.97627 25.7337L5.97622 25.7337L5.97152 25.7456C4.78245 28.7723 3.85861 31.2172 3.20316 33.0743C2.53693 34.9619 2.07687 36.6703 1.84241 38.189C1.61328 39.5672 1.5 40.9949 1.5 42.4706C1.5 47.4509 3.07743 51.6252 6.30699 54.8548L6.32662 54.8744L6.34697 54.8933C9.67255 57.9813 13.824 59.5 18.6912 59.5C23.4609 59.5 27.5129 57.9741 30.7316 54.8746L30.7324 54.8739C34.0776 51.6481 35.7206 47.4677 35.7206 42.4706C35.7206 37.3964 34.15 33.2433 30.8721 30.2082C29.8399 29.2525 28.7135 28.4543 27.4975 27.8104L34.211 3.39773ZM72.3875 3.39773L72.9094 1.5H70.9412H54.9265H53.9135L53.5351 2.43958L44.1527 25.7337L44.1527 25.7337L44.148 25.7456C42.9589 28.7723 42.0351 31.2172 41.3796 33.0743C40.7134 34.962 40.2533 36.6704 40.0189 38.1891C39.7897 39.5672 39.6765 40.9949 39.6765 42.4706C39.6765 47.4509 41.2539 51.6252 44.4835 54.8548L44.5031 54.8744L44.5234 54.8933C47.849 57.9813 52.0004 59.5 56.8676 59.5C61.6374 59.5 65.6894 57.9741 68.9081 54.8746L68.9089 54.8739C72.2541 51.6481 73.8971 47.4677 73.8971 42.4706C73.8971 37.3964 72.3264 33.2433 69.0485 30.2082C68.0163 29.2525 66.89 28.4543 65.674 27.8104L72.3875 3.39773Z" fill="white" stroke="#002244" stroke-width="3"/>
</svg>
