<svg width="40" height="40" viewBox="0 0 40 40" fill="none" xmlns="http://www.w3.org/2000/svg">
<path d="M28.75 12.5H6.25C5.55964 12.5 5 13.0596 5 13.75V31.25C5 31.9404 5.55964 32.5 6.25 32.5H28.75C29.4404 32.5 30 31.9404 30 31.25V13.75C30 13.0596 29.4404 12.5 28.75 12.5Z" stroke="#002244" stroke-width="2.5" stroke-linecap="round" stroke-linejoin="round"/>
<path d="M10 12.5V8.75C10 8.41848 10.1317 8.10054 10.3661 7.86612C10.6005 7.6317 10.9185 7.5 11.25 7.5H33.75C34.0815 7.5 34.3995 7.6317 34.6339 7.86612C34.8683 8.10054 35 8.41848 35 8.75V26.25C35 26.5815 34.8683 26.8995 34.6339 27.1339C34.3995 27.3683 34.0815 27.5 33.75 27.5H30" stroke="#002244" stroke-width="2.5" stroke-linecap="round" stroke-linejoin="round"/>
</svg>
