<svg width="40" height="40" viewBox="0 0 40 40" fill="none" xmlns="http://www.w3.org/2000/svg">
<path d="M8.51561 31.4843C7.07811 30.0468 8.03124 27.0312 7.29686 25.2656C6.56249 23.4999 3.75 21.9531 3.75 20C3.75 18.0468 6.53124 16.5625 7.29686 14.7343C8.06249 12.9062 7.07811 9.95311 8.51561 8.51561C9.95311 7.07811 12.9687 8.03124 14.7343 7.29686C16.5 6.56249 18.0468 3.75 20 3.75C21.9531 3.75 23.4374 6.53124 25.2656 7.29686C27.0937 8.06249 30.0468 7.07811 31.4843 8.51561C32.9218 9.95311 31.9687 12.9687 32.703 14.7343C33.4374 16.5 36.2499 18.0468 36.2499 20C36.2499 21.9531 33.4687 23.4374 32.703 25.2656C31.9374 27.0937 32.9218 30.0468 31.4843 31.4843C30.0468 32.9218 27.0312 31.9687 25.2656 32.703C23.4999 33.4374 21.9531 36.2499 20 36.2499C18.0468 36.2499 16.5625 33.4687 14.7343 32.703C12.9062 31.9374 9.95311 32.9218 8.51561 31.4843Z" stroke="#002244" stroke-width="2.49999" stroke-linecap="round" stroke-linejoin="round"/>
<path d="M26.875 16.25L17.7031 25L13.125 20.625" stroke="#002244" stroke-width="2.49999" stroke-linecap="round" stroke-linejoin="round"/>
</svg>
