<svg width="40" height="40" viewBox="0 0 40 40" fill="none" xmlns="http://www.w3.org/2000/svg">
<path d="M8.51562 31.4844C7.07813 30.0469 8.03125 27.0312 7.29688 25.2656C6.5625 23.5 3.75 21.9531 3.75 20C3.75 18.0469 6.53125 16.5625 7.29688 14.7344C8.0625 12.9063 7.07813 9.95312 8.51562 8.51562C9.95312 7.07813 12.9688 8.03125 14.7344 7.29688C16.5 6.5625 18.0469 3.75 20 3.75C21.9531 3.75 23.4375 6.53125 25.2656 7.29688C27.0937 8.0625 30.0469 7.07813 31.4844 8.51562C32.9219 9.95312 31.9688 12.9688 32.7031 14.7344C33.4375 16.5 36.25 18.0469 36.25 20C36.25 21.9531 33.4688 23.4375 32.7031 25.2656C31.9375 27.0937 32.9219 30.0469 31.4844 31.4844C30.0469 32.9219 27.0312 31.9688 25.2656 32.7031C23.5 33.4375 21.9531 36.25 20 36.25C18.0469 36.25 16.5625 33.4688 14.7344 32.7031C12.9063 31.9375 9.95312 32.9219 8.51562 31.4844Z" stroke="#14AC2C" stroke-width="2.5" stroke-linecap="round" stroke-linejoin="round"/>
<path d="M26.875 16.25L17.7031 25L13.125 20.625" stroke="#14AC2C" stroke-width="2.5" stroke-linecap="round" stroke-linejoin="round"/>
</svg>
