<svg width="20" height="20" viewBox="0 0 20 20" fill="none" xmlns="http://www.w3.org/2000/svg">
<path d="M3.07206 9.39421C2.9925 9.31902 2.89891 9.26025 2.79663 9.22124C2.69436 9.18222 2.5854 9.16374 2.47599 9.16683C2.36657 9.16993 2.25883 9.19454 2.15893 9.23928C2.05902 9.28401 1.9689 9.34798 1.89372 9.42754C1.81854 9.5071 1.75977 9.60069 1.72075 9.70296C1.68174 9.80524 1.66325 9.91419 1.66635 10.0236C1.66944 10.133 1.69406 10.2408 1.73879 10.3407C1.78352 10.4406 1.8475 10.5307 1.92706 10.6059L9.42706 17.6892C9.58178 17.8355 9.78663 17.917 9.99956 17.917C10.2125 17.917 10.4173 17.8355 10.5721 17.6892L18.0729 10.6059C18.1542 10.5312 18.2198 10.4411 18.266 10.3408C18.3122 10.2405 18.338 10.1321 18.3419 10.0218C18.3459 9.91144 18.3278 9.80143 18.2889 9.69813C18.2499 9.59484 18.1908 9.50031 18.115 9.42004C18.0392 9.33977 17.9482 9.27537 17.8473 9.23056C17.7464 9.18576 17.6376 9.16145 17.5273 9.15904C17.4169 9.15664 17.3072 9.17619 17.2044 9.21656C17.1016 9.25693 17.0079 9.31731 16.9287 9.39421L9.99956 15.9375L3.07206 9.39421Z" fill="black"/>
</svg>
