<svg width="162" height="28" viewBox="0 0 162 28" fill="none" xmlns="http://www.w3.org/2000/svg">
<path d="M45.3594 7.20797H54.3731C54.7408 7.1837 55.0848 7.02616 55.3344 6.76774C55.5839 6.50933 55.72 6.16968 55.7147 5.81863C55.7094 5.46758 55.563 5.13182 55.3057 4.88037C55.0485 4.62893 54.6998 4.48092 54.3315 4.46677C54.1923 4.46754 54.0539 4.48679 53.9203 4.52397C53.9414 4.37816 53.9522 4.23116 53.9526 4.08397C53.9514 3.31455 53.6296 2.57703 53.0579 2.03338C52.4862 1.48973 51.7113 1.18437 50.9034 1.18437C50.7144 1.18479 50.5258 1.20099 50.3398 1.23277C50.0404 0.760784 49.5876 0.394657 49.05 0.189933C48.5124 -0.0147907 47.9193 -0.0469428 47.3608 0.098356C46.8023 0.243655 46.3087 0.558476 45.9551 0.995063C45.6014 1.43165 45.4069 1.96618 45.401 2.51757H45.3594C45.028 2.50388 44.6971 2.55422 44.3867 2.66557C44.0762 2.77693 43.7926 2.94698 43.553 3.16549C43.3134 3.38399 43.1228 3.64644 42.9925 3.937C42.8622 4.22756 42.7951 4.54023 42.7951 4.85617C42.7951 5.17212 42.8622 5.48478 42.9925 5.77535C43.1228 6.06591 43.3134 6.32835 43.553 6.54686C43.7926 6.76537 44.0762 6.93542 44.3867 7.04677C44.6971 7.15812 45.028 7.20847 45.3594 7.19477V7.20797Z" fill="#F5F5F5"/>
<path d="M150.783 27.3291H159.797C160.165 27.3049 160.509 27.1473 160.758 26.8889C161.008 26.6305 161.144 26.2908 161.139 25.9398C161.133 25.5887 160.987 25.253 160.73 25.0015C160.472 24.7501 160.124 24.6021 159.755 24.5879C159.616 24.588 159.477 24.6088 159.344 24.6495C159.365 24.5037 159.376 24.3567 159.376 24.2095C159.375 23.4397 159.054 22.7017 158.482 22.1574C157.91 21.613 157.136 21.3067 156.327 21.3055C156.14 21.3052 155.952 21.3229 155.768 21.3583C155.468 20.8877 155.015 20.5229 154.478 20.3189C153.941 20.1148 153.349 20.0826 152.791 20.2272C152.233 20.3717 151.739 20.6851 151.385 21.1201C151.03 21.5551 150.834 22.0881 150.825 22.6387H150.783C150.452 22.625 150.121 22.6754 149.81 22.7867C149.5 22.8981 149.216 23.0681 148.977 23.2866C148.737 23.5052 148.547 23.7676 148.416 24.0582C148.286 24.3487 148.219 24.6614 148.219 24.9773C148.219 25.2933 148.286 25.6059 148.416 25.8965C148.547 26.1871 148.737 26.4495 148.977 26.668C149.216 26.8865 149.5 27.0566 149.81 27.1679C150.121 27.2793 150.452 27.3296 150.783 27.3159V27.3291Z" fill="#F5F5F5"/>
<path d="M135.368 5.94541H129.708C129.723 5.81534 129.73 5.68463 129.731 5.55381C129.725 4.61823 129.33 3.72295 128.634 3.06344C127.937 2.40394 126.994 2.03379 126.012 2.03381H125.878C125.608 1.34633 125.094 0.770803 124.424 0.40762C123.755 0.0444362 122.973 -0.0833526 122.214 0.0465413C121.456 0.176435 120.769 0.555767 120.275 1.11837C119.78 1.68098 119.508 2.39115 119.507 3.12501C118.73 3.15994 117.995 3.46826 117.444 3.99018C116.892 4.5121 116.564 5.21045 116.523 5.94981H116.375C115.936 5.94981 115.515 6.11577 115.205 6.41117C114.895 6.70658 114.721 7.10724 114.721 7.52501C114.721 7.94278 114.895 8.34343 115.205 8.63884C115.515 8.93425 115.936 9.10021 116.375 9.10021H135.368C135.806 9.10021 136.227 8.93425 136.537 8.63884C136.847 8.34343 137.021 7.94278 137.021 7.52501C137.021 7.10724 136.847 6.70658 136.537 6.41117C136.227 6.11577 135.806 5.94981 135.368 5.94981V5.94541Z" fill="#F5F5F5"/>
<path d="M17.2287 11.6829C16.7214 10.9066 16.0132 10.2675 15.172 9.82686C14.3309 9.38618 13.3849 9.15869 12.4249 9.1662C11.465 9.1737 10.5231 9.41596 9.68963 9.86974C8.85619 10.3235 8.15912 10.9736 7.66527 11.7577C7.40024 11.6887 7.12687 11.6532 6.85214 11.6521C6.05447 11.6521 5.28948 11.9538 4.72545 12.491C4.16141 13.0282 3.84453 13.7568 3.84453 14.5165H2.25988C1.86165 14.5165 1.47973 14.6671 1.19814 14.9353C0.916557 15.2035 0.758377 15.5672 0.758377 15.9465C0.758377 16.3257 0.916557 16.6894 1.19814 16.9576C1.47973 17.2258 1.86165 17.3765 2.25988 17.3765H7.73919C8.19052 18.0585 8.79833 18.6341 9.51692 19.0602C10.2355 19.4862 11.0462 19.7516 11.8879 19.8363C12.7297 19.921 13.5807 19.8228 14.3769 19.5492C15.1731 19.2756 15.8938 18.8336 16.4848 18.2565C16.5819 18.2565 16.6743 18.2565 16.7713 18.2565C17.6741 18.288 18.5544 17.9834 19.2254 17.4072C19.8963 16.831 20.3052 16.0285 20.3653 15.17C20.4254 14.3114 20.132 13.4644 19.5473 12.8084C18.9626 12.1525 18.1326 11.7393 17.2333 11.6565L17.2287 11.6829Z" fill="#F5F5F5"/>
</svg>
