<svg width="162" height="28" viewBox="0 0 162 28" fill="none" xmlns="http://www.w3.org/2000/svg">
<path d="M45.3585 7.2109H54.3721C54.7398 7.18663 55.0839 7.02909 55.3334 6.77067C55.5829 6.51226 55.719 6.17261 55.7137 5.82156C55.7084 5.47051 55.562 5.13475 55.3048 4.8833C55.0475 4.63186 54.6988 4.48385 54.3305 4.4697C54.1913 4.47047 54.0529 4.48972 53.9193 4.5269C53.9404 4.38109 53.9512 4.23409 53.9517 4.0869C53.9504 3.31748 53.6287 2.57996 53.0569 2.03631C52.4852 1.49266 51.7104 1.1873 50.9025 1.1873C50.7135 1.18772 50.5249 1.20392 50.3388 1.2357C50.0395 0.763714 49.5866 0.397587 49.049 0.192863C48.5114 -0.0118611 47.9184 -0.0440132 47.3598 0.101286C46.8013 0.246584 46.3078 0.561406 45.9541 0.997993C45.6004 1.43458 45.4059 1.96911 45.4 2.5205H45.3585C45.027 2.50681 44.6961 2.55715 44.3857 2.6685C44.0752 2.77986 43.7917 2.94991 43.5521 3.16842C43.3124 3.38692 43.1218 3.64937 42.9915 3.93993C42.8612 4.23049 42.7941 4.54316 42.7941 4.8591C42.7941 5.17505 42.8612 5.48771 42.9915 5.77828C43.1218 6.06884 43.3124 6.33128 43.5521 6.54979C43.7917 6.7683 44.0752 6.93835 44.3857 7.0497C44.6961 7.16105 45.027 7.2114 45.3585 7.1977V7.2109Z" fill="#F5F5F5"/>
<path d="M150.782 27.3321H159.796C160.164 27.3078 160.508 27.1503 160.757 26.8918C161.007 26.6334 161.143 26.2938 161.138 25.9427C161.132 25.5917 160.986 25.2559 160.729 25.0045C160.471 24.753 160.123 24.605 159.754 24.5909C159.615 24.5909 159.476 24.6117 159.343 24.6525C159.364 24.5066 159.375 24.3597 159.375 24.2125C159.374 23.4426 159.053 22.7047 158.481 22.1603C157.909 21.616 157.135 21.3096 156.326 21.3085C156.139 21.3082 155.951 21.3259 155.767 21.3613C155.467 20.8907 155.014 20.5258 154.477 20.3218C153.94 20.1178 153.348 20.0856 152.79 20.2301C152.232 20.3746 151.738 20.688 151.384 21.123C151.029 21.558 150.833 22.091 150.824 22.6417H150.782C150.451 22.628 150.12 22.6783 149.81 22.7897C149.499 22.901 149.215 23.0711 148.976 23.2896C148.736 23.5081 148.546 23.7705 148.415 24.0611C148.285 24.3517 148.218 24.6643 148.218 24.9803C148.218 25.2962 148.285 25.6089 148.415 25.8994C148.546 26.19 148.736 26.4524 148.976 26.671C149.215 26.8895 149.499 27.0595 149.81 27.1709C150.12 27.2822 150.451 27.3326 150.782 27.3189V27.3321Z" fill="#F5F5F5"/>
<path d="M135.366 5.94834H129.706C129.721 5.81827 129.729 5.68756 129.729 5.55674C129.723 4.62116 129.329 3.72588 128.632 3.06637C127.935 2.40687 126.992 2.03672 126.01 2.03674H125.876C125.607 1.34926 125.092 0.773733 124.422 0.410549C123.753 0.0473659 122.971 -0.0804229 122.212 0.0494709C121.454 0.179365 120.767 0.558697 120.273 1.1213C119.778 1.68391 119.506 2.39408 119.505 3.12794C118.729 3.16287 117.993 3.47118 117.442 3.99311C116.89 4.51503 116.562 5.21338 116.521 5.95274H116.373C115.934 5.95274 115.513 6.1187 115.203 6.4141C114.893 6.70951 114.719 7.11017 114.719 7.52794C114.719 7.94571 114.893 8.34636 115.203 8.64177C115.513 8.93718 115.934 9.10314 116.373 9.10314H135.366C135.804 9.10314 136.225 8.93718 136.535 8.64177C136.845 8.34636 137.02 7.94571 137.02 7.52794C137.02 7.11017 136.845 6.70951 136.535 6.4141C136.225 6.1187 135.804 5.95274 135.366 5.95274V5.94834Z" fill="#F5F5F5"/>
<path d="M17.2277 11.6858C16.7204 10.9096 16.0122 10.2705 15.171 9.82979C14.3299 9.38911 13.384 9.16162 12.424 9.16913C11.464 9.17663 10.5221 9.41889 9.68866 9.87267C8.85521 10.3264 8.15815 10.9765 7.66429 11.7606C7.39926 11.6917 7.12589 11.6562 6.85117 11.655C6.0535 11.655 5.28851 11.9568 4.72447 12.4939C4.16043 13.0311 3.84356 13.7597 3.84356 14.5194H2.2589C1.86068 14.5194 1.47875 14.67 1.19717 14.9382C0.915581 15.2064 0.757401 15.5701 0.757401 15.9494C0.757401 16.3286 0.915581 16.6924 1.19717 16.9605C1.47875 17.2287 1.86068 17.3794 2.2589 17.3794H7.73821C8.18954 18.0614 8.79735 18.6371 9.51594 19.0631C10.2345 19.4892 11.0452 19.7545 11.887 19.8392C12.7287 19.9239 13.5797 19.8258 14.376 19.5521C15.1722 19.2785 15.8929 18.8365 16.4839 18.2594C16.5809 18.2594 16.6733 18.2594 16.7703 18.2594C17.6732 18.291 18.5534 17.9863 19.2244 17.4101C19.8954 16.8339 20.3043 16.0314 20.3644 15.1729C20.4245 14.3144 20.131 13.4673 19.5463 12.8114C18.9616 12.1554 18.1316 11.7422 17.2323 11.6594L17.2277 11.6858Z" fill="#F5F5F5"/>
</svg>
