<svg width="31" height="31" viewBox="0 0 31 31" fill="none" xmlns="http://www.w3.org/2000/svg">
<path d="M15.4997 2.5835C12.945 2.5835 10.4477 3.34105 8.32356 4.76035C6.19943 6.17965 4.54387 8.19696 3.56624 10.5572C2.5886 12.9174 2.33281 15.5145 2.8312 18.0201C3.3296 20.5257 4.55979 22.8272 6.36622 24.6336C8.17265 26.4401 10.4742 27.6702 12.9798 28.1686C15.4854 28.667 18.0825 28.4112 20.4427 27.4336C22.8029 26.456 24.8202 24.8004 26.2395 22.6763C27.6588 20.5521 28.4163 18.0548 28.4163 15.5002C28.4163 13.8039 28.0822 12.1243 27.4331 10.5572C26.784 8.99005 25.8326 7.56612 24.6331 6.3667C23.4337 5.16728 22.0098 4.21584 20.4427 3.56672C18.8756 2.9176 17.1959 2.5835 15.4997 2.5835ZM15.4997 25.8335C13.4559 25.8335 11.4581 25.2275 9.75879 24.092C8.05948 22.9566 6.73503 21.3427 5.95293 19.4546C5.17082 17.5664 4.96619 15.4887 5.3649 13.4842C5.76361 11.4798 6.74777 9.63854 8.19291 8.19339C9.63805 6.74825 11.4793 5.7641 13.4837 5.36538C15.4882 4.96667 17.5659 5.1713 19.4541 5.95341C21.3422 6.73551 22.9561 8.05996 24.0915 9.75927C25.227 11.4586 25.833 13.4564 25.833 15.5002C25.833 18.2407 24.7443 20.8691 22.8064 22.8069C20.8686 24.7448 18.2403 25.8335 15.4997 25.8335Z" fill="#2A4764" fill-opacity="0.58"/>
</svg>
