<svg width="31" height="31" viewBox="0 0 31 31" fill="none" xmlns="http://www.w3.org/2000/svg">
<path d="M15.4997 2.5835C12.945 2.5835 10.4477 3.34105 8.32356 4.76035C6.19943 6.17965 4.54387 8.19696 3.56624 10.5572C2.5886 12.9174 2.33281 15.5145 2.8312 18.0201C3.3296 20.5257 4.55979 22.8272 6.36622 24.6336C8.17265 26.4401 10.4742 27.6702 12.9798 28.1686C15.4854 28.667 18.0825 28.4112 20.4427 27.4336C22.8029 26.456 24.8202 24.8004 26.2395 22.6763C27.6588 20.5521 28.4163 18.0548 28.4163 15.5002C28.4163 13.8039 28.0822 12.1243 27.4331 10.5572C26.784 8.99005 25.8326 7.56612 24.6331 6.3667C23.4337 5.16728 22.0098 4.21584 20.4427 3.56672C18.8756 2.9176 17.1959 2.5835 15.4997 2.5835ZM15.4997 25.8335C13.4559 25.8335 11.4581 25.2275 9.75879 24.092C8.05948 22.9566 6.73503 21.3427 5.95293 19.4546C5.17082 17.5664 4.96619 15.4887 5.3649 13.4842C5.76361 11.4798 6.74777 9.63854 8.19291 8.19339C9.63805 6.74825 11.4793 5.7641 13.4837 5.36538C15.4882 4.96667 17.5659 5.1713 19.4541 5.95341C21.3422 6.73551 22.9561 8.05996 24.0915 9.75927C25.227 11.4586 25.833 13.4564 25.833 15.5002C25.833 18.2407 24.7443 20.8691 22.8064 22.8069C20.8686 24.7448 18.2403 25.8335 15.4997 25.8335Z" fill="#2A4764"/>
<path d="M15.4994 9.04199C14.222 9.04199 12.9734 9.42077 11.9113 10.1304C10.8492 10.8401 10.0214 11.8487 9.53263 13.0288C9.04381 14.2089 8.91592 15.5075 9.16511 16.7603C9.41431 18.0131 10.0294 19.1638 10.9326 20.0671C11.8358 20.9703 12.9866 21.5854 14.2394 21.8346C15.4922 22.0838 16.7907 21.9559 17.9708 21.467C19.151 20.9782 20.1596 20.1505 20.8693 19.0884C21.5789 18.0263 21.9577 16.7777 21.9577 15.5003C21.9577 13.7875 21.2773 12.1448 20.0661 10.9336C18.8549 9.72242 17.2122 9.04199 15.4994 9.04199Z" fill="#2A4764"/>
</svg>
