<svg width="30" height="31" viewBox="0 0 30 31" fill="none" xmlns="http://www.w3.org/2000/svg">
<path fill-rule="evenodd" clip-rule="evenodd" d="M4.6838 15.6098C4.6838 15.3187 4.79943 15.0396 5.00527 14.8337C5.2111 14.6279 5.49027 14.5123 5.78136 14.5123L21.3492 14.5123L15.2643 8.71716C15.0647 8.51313 14.9524 8.23938 14.9513 7.95395C14.9502 7.66853 15.0603 7.3939 15.2582 7.1883C15.4562 6.9827 15.7265 6.86232 16.0118 6.85268C16.297 6.84304 16.5748 6.94491 16.7862 7.13667L24.835 14.8196C24.9412 14.922 25.0257 15.0447 25.0834 15.1805C25.1412 15.3163 25.1709 15.4623 25.1709 15.6098C25.1709 15.7574 25.1412 15.9034 25.0834 16.0392C25.0257 16.175 24.9412 16.2977 24.835 16.4001L16.7862 24.083C16.6835 24.188 16.5608 24.2713 16.4253 24.328C16.2897 24.3847 16.1442 24.4136 15.9973 24.413C15.8505 24.4124 15.7052 24.3824 15.5701 24.3246C15.4351 24.2669 15.313 24.1826 15.2111 24.0768C15.1092 23.971 15.0296 23.8458 14.977 23.7087C14.9244 23.5715 14.8998 23.4252 14.9048 23.2784C14.9097 23.1316 14.9441 22.9873 15.0059 22.854C15.0676 22.7207 15.1555 22.6012 15.2643 22.5025L21.3492 16.7074L5.78136 16.7074C5.49027 16.7074 5.2111 16.5918 5.00527 16.3859C4.79943 16.1801 4.6838 15.9009 4.6838 15.6098Z" fill="white"/>
</svg>
