<svg width="36" height="36" viewBox="0 0 36 36" fill="none" xmlns="http://www.w3.org/2000/svg">
<path d="M18 2.25C13.8384 2.30021 9.86147 3.9757 6.91858 6.91858C3.9757 9.86147 2.30021 13.8384 2.25 18C2.30021 22.1616 3.9757 26.1385 6.91858 29.0814C9.86147 32.0243 13.8384 33.6998 18 33.75C22.1616 33.6998 26.1385 32.0243 29.0814 29.0814C32.0243 26.1385 33.6998 22.1616 33.75 18C33.6998 13.8384 32.0243 9.86147 29.0814 6.91858C26.1385 3.9757 22.1616 2.30021 18 2.25ZM27 19.125H19.125V27H16.875V19.125H9V16.875H16.875V9H19.125V16.875H27V19.125Z" fill="#30577E"/>
</svg>
