<svg width="231" height="220" viewBox="0 0 231 220" fill="none" xmlns="http://www.w3.org/2000/svg">
<path d="M83.3585 43.208H92.3721C92.7398 43.1837 93.0839 43.0262 93.3334 42.7677C93.5829 42.5093 93.719 42.1697 93.7137 41.8186C93.7084 41.4676 93.562 41.1318 93.3048 40.8804C93.0475 40.6289 92.6988 40.4809 92.3305 40.4668C92.1913 40.4675 92.0529 40.4868 91.9193 40.524C91.9404 40.3782 91.9512 40.2312 91.9517 40.084C91.9504 39.3145 91.6287 38.577 91.0569 38.0334C90.4852 37.4897 89.7104 37.1844 88.9025 37.1844C88.7135 37.1848 88.5249 37.201 88.3388 37.2328C88.0395 36.7608 87.5866 36.3947 87.049 36.1899C86.5114 35.9852 85.9184 35.9531 85.3598 36.0984C84.8013 36.2437 84.3078 36.5585 83.9541 36.9951C83.6004 37.4317 83.4059 37.9662 83.4 38.5176H83.3585C83.027 38.5039 82.6961 38.5542 82.3857 38.6656C82.0752 38.7769 81.7917 38.947 81.5521 39.1655C81.3124 39.384 81.1218 39.6464 80.9915 39.937C80.8612 40.2276 80.7941 40.5402 80.7941 40.8562C80.7941 41.1721 80.8612 41.4848 80.9915 41.7753C81.1218 42.0659 81.3124 42.3284 81.5521 42.5469C81.7917 42.7654 82.0752 42.9354 82.3857 43.0468C82.6961 43.1581 83.027 43.2085 83.3585 43.1948V43.208Z" fill="#F5F5F5"/>
<path d="M188.782 63.3291H197.796C198.164 63.3049 198.508 63.1473 198.757 62.8889C199.007 62.6305 199.143 62.2908 199.138 61.9398C199.132 61.5887 198.986 61.253 198.729 61.0015C198.471 60.7501 198.123 60.6021 197.754 60.5879C197.615 60.588 197.476 60.6088 197.343 60.6495C197.364 60.5037 197.375 60.3567 197.375 60.2095C197.374 59.4397 197.053 58.7017 196.481 58.1574C195.909 57.613 195.135 57.3067 194.326 57.3055C194.139 57.3052 193.951 57.3229 193.767 57.3583C193.467 56.8877 193.014 56.5229 192.477 56.3189C191.94 56.1148 191.348 56.0826 190.79 56.2272C190.232 56.3717 189.738 56.6851 189.384 57.1201C189.029 57.5551 188.833 58.0881 188.824 58.6387H188.782C188.451 58.625 188.12 58.6754 187.81 58.7867C187.499 58.8981 187.215 59.0681 186.976 59.2866C186.736 59.5052 186.546 59.7676 186.415 60.0582C186.285 60.3487 186.218 60.6614 186.218 60.9773C186.218 61.2933 186.285 61.6059 186.415 61.8965C186.546 62.1871 186.736 62.4495 186.976 62.668C187.215 62.8865 187.499 63.0566 187.81 63.1679C188.12 63.2793 188.451 63.3296 188.782 63.3159V63.3291Z" fill="#F5F5F5"/>
<path d="M173.366 41.9454H167.706C167.721 41.8153 167.729 41.6846 167.729 41.5538C167.723 40.6182 167.329 39.7229 166.632 39.0634C165.935 38.4039 164.992 38.0338 164.01 38.0338H163.876C163.607 37.3463 163.092 36.7708 162.422 36.4076C161.753 36.0444 160.971 35.9166 160.212 36.0465C159.454 36.1764 158.767 36.5558 158.273 37.1184C157.778 37.681 157.506 38.3911 157.505 39.125C156.729 39.1599 155.993 39.4683 155.442 39.9902C154.89 40.5121 154.562 41.2104 154.521 41.9498H154.373C153.934 41.9498 153.513 42.1158 153.203 42.4112C152.893 42.7066 152.719 43.1072 152.719 43.525C152.719 43.9428 152.893 44.3434 153.203 44.6388C153.513 44.9342 153.934 45.1002 154.373 45.1002H173.366C173.804 45.1002 174.225 44.9342 174.535 44.6388C174.845 44.3434 175.02 43.9428 175.02 43.525C175.02 43.1072 174.845 42.7066 174.535 42.4112C174.225 42.1158 173.804 41.9498 173.366 41.9498V41.9454Z" fill="#F5F5F5"/>
<path d="M55.2277 47.6829C54.7204 46.9066 54.0122 46.2675 53.171 45.8269C52.3299 45.3862 51.384 45.1587 50.424 45.1662C49.464 45.1737 48.5221 45.416 47.6887 45.8697C46.8552 46.3235 46.1581 46.9736 45.6643 47.7577C45.3993 47.6887 45.1259 47.6532 44.8512 47.6521C44.0535 47.6521 43.2885 47.9538 42.7245 48.491C42.1604 49.0282 41.8436 49.7568 41.8436 50.5165H40.2589C39.8607 50.5165 39.4788 50.6671 39.1972 50.9353C38.9156 51.2035 38.7574 51.5672 38.7574 51.9465C38.7574 52.3257 38.9156 52.6894 39.1972 52.9576C39.4788 53.2258 39.8607 53.3765 40.2589 53.3765H45.7382C46.1895 54.0585 46.7974 54.6341 47.5159 55.0602C48.2345 55.4862 49.0452 55.7516 49.887 55.8363C50.7287 55.921 51.5797 55.8228 52.376 55.5492C53.1722 55.2756 53.8929 54.8336 54.4839 54.2565C54.5809 54.2565 54.6733 54.2565 54.7703 54.2565C55.6732 54.288 56.5534 53.9834 57.2244 53.4072C57.8954 52.831 58.3043 52.0285 58.3644 51.17C58.4245 50.3114 58.131 49.4644 57.5463 48.8084C56.9616 48.1525 56.1316 47.7393 55.2323 47.6565L55.2277 47.6829Z" fill="#F5F5F5"/>
</svg>
