<svg width="30" height="31" viewBox="0 0 30 31" fill="none" xmlns="http://www.w3.org/2000/svg">
<path fill-rule="evenodd" clip-rule="evenodd" d="M4.39083 15.6098C4.39083 15.3187 4.50647 15.0396 4.7123 14.8337C4.91813 14.6279 5.1973 14.5123 5.48839 14.5123L21.0562 14.5123L14.9713 8.71716C14.7717 8.51313 14.6594 8.23938 14.6583 7.95395C14.6572 7.66853 14.7673 7.3939 14.9653 7.1883C15.1633 6.9827 15.4335 6.86232 15.7188 6.85268C16.0041 6.84304 16.2819 6.94491 16.4933 7.13667L24.542 14.8196C24.6483 14.922 24.7328 15.0447 24.7905 15.1805C24.8482 15.3163 24.8779 15.4623 24.8779 15.6098C24.8779 15.7574 24.8482 15.9034 24.7905 16.0392C24.7328 16.175 24.6483 16.2977 24.542 16.4001L16.4933 24.083C16.3905 24.188 16.2678 24.2713 16.1323 24.328C15.9968 24.3847 15.8513 24.4136 15.7044 24.413C15.5575 24.4124 15.4122 24.3824 15.2772 24.3246C15.1421 24.2669 15.02 24.1826 14.9181 24.0768C14.8162 23.971 14.7366 23.8458 14.684 23.7087C14.6314 23.5715 14.6068 23.4252 14.6118 23.2784C14.6167 23.1316 14.6511 22.9873 14.7129 22.854C14.7746 22.7207 14.8625 22.6012 14.9713 22.5025L21.0562 16.7074L5.48839 16.7074C5.1973 16.7074 4.91813 16.5918 4.7123 16.3859C4.50647 16.1801 4.39083 15.9009 4.39083 15.6098Z" fill="white"/>
</svg>
