<svg width="31" height="31" viewBox="0 0 31 31" fill="none" xmlns="http://www.w3.org/2000/svg">
<path d="M15.4997 2.58643C12.945 2.58643 10.4477 3.34398 8.32356 4.76328C6.19943 6.18258 4.54387 8.19989 3.56624 10.5601C2.5886 12.9203 2.33281 15.5174 2.8312 18.023C3.3296 20.5286 4.55979 22.8301 6.36622 24.6366C8.17265 26.443 10.4742 27.6732 12.9798 28.1716C15.4854 28.67 18.0825 28.4142 20.4427 27.4365C22.8029 26.4589 24.8202 24.8033 26.2395 22.6792C27.6588 20.5551 28.4163 18.0578 28.4163 15.5031C28.4163 13.8069 28.0822 12.1272 27.4331 10.5601C26.784 8.99298 25.8326 7.56905 24.6331 6.36963C23.4337 5.17021 22.0098 4.21877 20.4427 3.56965C18.8756 2.92053 17.1959 2.58643 15.4997 2.58643ZM15.4997 25.8364C13.4559 25.8364 11.4581 25.2304 9.75879 24.0949C8.05948 22.9595 6.73503 21.3457 5.95293 19.4575C5.17082 17.5693 4.96619 15.4916 5.3649 13.4872C5.76361 11.4827 6.74777 9.64147 8.19291 8.19632C9.63805 6.75118 11.4793 5.76703 13.4837 5.36831C15.4882 4.9696 17.5659 5.17423 19.4541 5.95634C21.3422 6.73844 22.9561 8.06289 24.0915 9.7622C25.227 11.4615 25.833 13.4594 25.833 15.5031C25.833 18.2437 24.7443 20.872 22.8064 22.8099C20.8686 24.7477 18.2403 25.8364 15.4997 25.8364Z" fill="#2A4764" fill-opacity="0.64"/>
</svg>
