<svg width="30" height="30" viewBox="0 0 30 30" fill="none" xmlns="http://www.w3.org/2000/svg">
<path d="M15 2.8125C12.5895 2.8125 10.2332 3.52728 8.22899 4.86646C6.22477 6.20564 4.66267 8.10907 3.74022 10.336C2.81778 12.563 2.57643 15.0135 3.04668 17.3777C3.51694 19.7418 4.67769 21.9134 6.38214 23.6179C8.08659 25.3223 10.2582 26.4831 12.6223 26.9533C14.9865 27.4236 17.437 27.1822 19.664 26.2598C21.8909 25.3373 23.7944 23.7752 25.1335 21.771C26.4727 19.7668 27.1875 17.4105 27.1875 15C27.1841 11.7687 25.899 8.67076 23.6141 6.3859C21.3292 4.10104 18.2313 2.81591 15 2.8125ZM15 22.5C14.7219 22.5 14.45 22.4175 14.2187 22.263C13.9875 22.1085 13.8072 21.8889 13.7008 21.6319C13.5944 21.3749 13.5665 21.0922 13.6208 20.8194C13.675 20.5466 13.809 20.296 14.0056 20.0994C14.2023 19.9027 14.4529 19.7688 14.7257 19.7145C14.9984 19.6603 15.2812 19.6881 15.5382 19.7945C15.7951 19.901 16.0147 20.0812 16.1693 20.3125C16.3238 20.5437 16.4063 20.8156 16.4063 21.0938C16.4063 21.4667 16.2581 21.8244 15.9944 22.0881C15.7307 22.3518 15.373 22.5 15 22.5ZM15.9375 16.7906V16.875C15.9375 17.1236 15.8387 17.3621 15.6629 17.5379C15.4871 17.7137 15.2486 17.8125 15 17.8125C14.7514 17.8125 14.5129 17.7137 14.3371 17.5379C14.1613 17.3621 14.0625 17.1236 14.0625 16.875V15.9375C14.0625 15.6889 14.1613 15.4504 14.3371 15.2746C14.5129 15.0988 14.7514 15 15 15C16.5504 15 17.8125 13.9453 17.8125 12.6562C17.8125 11.3672 16.5504 10.3125 15 10.3125C13.4496 10.3125 12.1875 11.3672 12.1875 12.6562V13.125C12.1875 13.3736 12.0887 13.6121 11.9129 13.7879C11.7371 13.9637 11.4986 14.0625 11.25 14.0625C11.0014 14.0625 10.7629 13.9637 10.5871 13.7879C10.4113 13.6121 10.3125 13.3736 10.3125 13.125V12.6562C10.3125 10.3301 12.4148 8.4375 15 8.4375C17.5852 8.4375 19.6875 10.3301 19.6875 12.6562C19.6875 14.693 18.075 16.398 15.9375 16.7906Z" fill="#30577E"/>
</svg>
