<svg width="30" height="31" viewBox="0 0 30 31" fill="none" xmlns="http://www.w3.org/2000/svg">
<path fill-rule="evenodd" clip-rule="evenodd" d="M4.43966 15.6098C4.43966 15.3187 4.55529 15.0396 4.76113 14.8337C4.96696 14.6279 5.24613 14.5123 5.53722 14.5123L21.105 14.5123L15.0201 8.71716C14.8205 8.51313 14.7083 8.23938 14.7071 7.95395C14.706 7.66853 14.8161 7.3939 15.0141 7.1883C15.2121 6.9827 15.4824 6.86232 15.7676 6.85268C16.0529 6.84304 16.3307 6.94491 16.5421 7.13667L24.5909 14.8196C24.6971 14.922 24.7816 15.0447 24.8393 15.1805C24.897 15.3163 24.9268 15.4623 24.9268 15.6098C24.9268 15.7574 24.897 15.9034 24.8393 16.0392C24.7816 16.175 24.6971 16.2977 24.5909 16.4001L16.5421 24.083C16.4394 24.188 16.3166 24.2713 16.1811 24.328C16.0456 24.3847 15.9001 24.4136 15.7532 24.413C15.6063 24.4124 15.461 24.3824 15.326 24.3246C15.1909 24.2669 15.0688 24.1826 14.967 24.0768C14.8651 23.971 14.7855 23.8458 14.7328 23.7087C14.6802 23.5715 14.6557 23.4252 14.6606 23.2784C14.6656 23.1316 14.7 22.9873 14.7617 22.854C14.8235 22.7207 14.9113 22.6012 15.0201 22.5025L21.105 16.7074L5.53722 16.7074C5.24613 16.7074 4.96696 16.5918 4.76113 16.3859C4.55529 16.1801 4.43966 15.9009 4.43966 15.6098Z" fill="white"/>
</svg>
