<svg width="40" height="40" viewBox="0 0 40 40" fill="none" xmlns="http://www.w3.org/2000/svg">
<path d="M34.375 27.5V32.5C34.375 32.8315 34.2433 33.1495 34.0089 33.3839C33.7745 33.6183 33.4565 33.75 33.125 33.75H29.375C29.0435 33.75 28.7255 33.6183 28.4911 33.3839C28.2567 33.1495 28.125 32.8315 28.125 32.5V27.5" stroke="#002244" stroke-width="2.5" stroke-linecap="round" stroke-linejoin="round"/>
<path d="M11.875 27.5V32.5C11.875 32.8315 11.7433 33.1495 11.5089 33.3839C11.2745 33.6183 10.9565 33.75 10.625 33.75H6.875C6.54348 33.75 6.22554 33.6183 5.99112 33.3839C5.7567 33.1495 5.625 32.8315 5.625 32.5V27.5" stroke="#002244" stroke-width="2.5" stroke-linecap="round" stroke-linejoin="round"/>
<path d="M2.5 15H37.5" stroke="#002244" stroke-width="2.5" stroke-linecap="round" stroke-linejoin="round"/>
<path d="M22.5 20V27.5" stroke="#002244" stroke-width="2.5" stroke-linecap="round" stroke-linejoin="round"/>
<path d="M17.5 20V27.5" stroke="#002244" stroke-width="2.5" stroke-linecap="round" stroke-linejoin="round"/>
<path d="M34.375 27.5H5.625V15L6.71875 7.32813C6.76015 7.02988 6.90781 6.75661 7.13459 6.55854C7.36137 6.36046 7.65203 6.2509 7.95313 6.25H32.0469C32.348 6.2509 32.6386 6.36046 32.8654 6.55854C33.0922 6.75661 33.2398 7.02988 33.2812 7.32813L34.375 15V27.5Z" stroke="#002244" stroke-width="2.5" stroke-linecap="round" stroke-linejoin="round"/>
<path d="M11.25 22.5C12.2855 22.5 13.125 21.6605 13.125 20.625C13.125 19.5895 12.2855 18.75 11.25 18.75C10.2145 18.75 9.375 19.5895 9.375 20.625C9.375 21.6605 10.2145 22.5 11.25 22.5Z" fill="#002244"/>
<path d="M28.75 22.5C29.7855 22.5 30.625 21.6605 30.625 20.625C30.625 19.5895 29.7855 18.75 28.75 18.75C27.7145 18.75 26.875 19.5895 26.875 20.625C26.875 21.6605 27.7145 22.5 28.75 22.5Z" fill="#002244"/>
</svg>
