<svg width="32" height="33" viewBox="0 0 32 33" fill="none" xmlns="http://www.w3.org/2000/svg">
<path d="M16 22.5C21.5228 22.5 26 18.0228 26 12.5C26 6.97715 21.5228 2.5 16 2.5C10.4772 2.5 6 6.97715 6 12.5C6 18.0228 10.4772 22.5 16 22.5Z" stroke="#002244" stroke-width="2" stroke-linecap="round" stroke-linejoin="round"/>
<path d="M16 18.5C19.3137 18.5 22 15.8137 22 12.5C22 9.18629 19.3137 6.5 16 6.5C12.6863 6.5 10 9.18629 10 12.5C10 15.8137 12.6863 18.5 16 18.5Z" stroke="#002244" stroke-width="2" stroke-linecap="round" stroke-linejoin="round"/>
<path d="M22 20.5V30.5L16 27.5L10 30.5V20.5" stroke="#002244" stroke-width="2" stroke-linecap="round" stroke-linejoin="round"/>
</svg>
