<svg width="94" height="94" viewBox="0 0 94 94" fill="none" xmlns="http://www.w3.org/2000/svg">
<g filter="url(#filter0_d_342_1978)">
<rect x="17" y="17" width="56" height="56" rx="22" fill="white"/>
</g>
<path fill-rule="evenodd" clip-rule="evenodd" d="M43.8325 36.9175V34.5002C43.8325 33.8562 44.3551 33.3335 44.9991 33.3335C45.642 33.3335 46.1658 33.8562 46.1658 34.5002V36.9175C47.8995 37.1672 49.52 37.9722 50.773 39.2252C52.3048 40.757 53.1658 42.8348 53.1658 45.0002V49.3915L54.1097 51.2792C54.5612 52.1833 54.5133 53.2567 53.9813 54.1165C53.4505 54.9763 52.5113 55.5002 51.501 55.5002H46.1658C46.1658 56.1442 45.642 56.6668 44.9991 56.6668C44.3551 56.6668 43.8325 56.1442 43.8325 55.5002H38.4973C37.4858 55.5002 36.5467 54.9763 36.0158 54.1165C35.4838 53.2567 35.436 52.1833 35.8887 51.2792L36.8325 49.3915V45.0002C36.8325 42.8348 37.6923 40.757 39.2242 39.2252C40.4783 37.9722 42.0976 37.1672 43.8325 36.9175ZM44.9991 39.1668C43.451 39.1668 41.9682 39.7817 40.8738 40.876C39.7795 41.9692 39.1658 43.4532 39.1658 45.0002V49.6668C39.1658 49.8477 39.1227 50.0262 39.0422 50.1883C39.0422 50.1883 38.523 51.2267 37.9746 52.3222C37.8848 52.503 37.8942 52.7188 38.0003 52.8903C38.1065 53.0618 38.2943 53.1668 38.4973 53.1668H51.501C51.7028 53.1668 51.8907 53.0618 51.9968 52.8903C52.103 52.7188 52.1123 52.503 52.0225 52.3222C51.4742 51.2267 50.955 50.1883 50.955 50.1883C50.8745 50.0262 50.8325 49.8477 50.8325 49.6668V45.0002C50.8325 43.4532 50.2176 41.9692 49.1233 40.876C48.029 39.7817 46.5461 39.1668 44.9991 39.1668Z" fill="#263238"/>
<circle cx="59" cy="32" r="9.5" fill="#2A4764" stroke="white" stroke-width="3"/>
<defs>
<filter id="filter0_d_342_1978" x="0" y="0" width="94" height="94" filterUnits="userSpaceOnUse" color-interpolation-filters="sRGB">
<feFlood flood-opacity="0" result="BackgroundImageFix"/>
<feColorMatrix in="SourceAlpha" type="matrix" values="0 0 0 0 0 0 0 0 0 0 0 0 0 0 0 0 0 0 127 0" result="hardAlpha"/>
<feOffset dx="2" dy="2"/>
<feGaussianBlur stdDeviation="9.5"/>
<feComposite in2="hardAlpha" operator="out"/>
<feColorMatrix type="matrix" values="0 0 0 0 0 0 0 0 0 0 0 0 0 0 0 0 0 0 0.16 0"/>
<feBlend mode="normal" in2="BackgroundImageFix" result="effect1_dropShadow_342_1978"/>
<feBlend mode="normal" in="SourceGraphic" in2="effect1_dropShadow_342_1978" result="shape"/>
</filter>
</defs>
</svg>
