<svg width="6" height="5" viewBox="0 0 6 5" fill="none" xmlns="http://www.w3.org/2000/svg">
<path fill-rule="evenodd" clip-rule="evenodd" d="M0.622587 4.60294C1.94272 4.50796 3.94439 4.61769 5.27505 4.73486C5.2952 4.71471 5.32513 4.7009 5.34623 4.68768L5.70024 4.47678L5.11137 4.37966C5.18786 4.53016 5.29605 4.36353 5.6015 4.29769C5.59654 4.28375 5.5855 4.26471 5.58272 4.25752C5.57972 4.24978 5.5678 4.22373 5.56403 4.21376C5.45477 3.92298 5.53177 3.8627 5.0963 3.61568C4.97429 3.54642 5.09048 3.564 4.94777 3.56281L5.27422 3.56267V1.93102C4.96984 1.93059 5.16385 2.02026 5.27422 1.60456L4.94777 1.60417C5.21866 1.60246 5.2741 1.52221 5.27422 1.52208L5.25883 1.34955C5.31688 1.07425 5.1275 1.44983 5.46653 1.12264C5.64249 0.952757 5.45091 1.31121 5.60064 0.951167L4.89985 0.857649C4.65575 0.834505 4.49323 0.798141 4.13272 0.788559C3.89999 0.782355 3.64159 0.74864 3.462 0.681345C2.89506 0.468853 2.52399 0.393442 2.14405 0.482469C1.96288 0.524908 2.24955 0.590993 1.93096 0.500512C1.54777 0.391849 1.12125 0.264923 0.541016 0.380217C0.693058 0.506249 0.607447 0.469843 0.86148 0.534613C0.92625 0.551212 1.1174 0.543087 1.19355 0.543087L1.21913 0.733581C1.27953 1.12883 1.84351 0.965717 2.01014 1.19562L1.98336 1.22488C1.68685 1.47579 1.75769 1.57508 1.76398 2.17559L1.84937 3.57372L1.43838 3.64464L1.76497 3.8079C1.7532 4.33453 1.69681 4.15022 1.24714 4.25341C0.681154 4.38316 0.696555 4.47134 0.622587 4.60294Z" fill="white" stroke="white" stroke-width="0.213904" stroke-miterlimit="2.61313"/>
</svg>
