<svg width="8" height="4" viewBox="0 0 8 4" fill="none" xmlns="http://www.w3.org/2000/svg">
<path fill-rule="evenodd" clip-rule="evenodd" d="M1.00879 2.13334L1.06518 3.4144C1.89333 3.23917 1.22427 2.49701 3.92494 2.98874C4.83275 3.15404 6.27245 3.31739 7.0704 3.56128C7.23194 3.49578 7.49435 3.51614 7.38945 3.19648C7.2078 2.64302 6.97277 3.60748 7.10655 2.757L7.31489 2.21544L6.62898 1.88376C6.61748 1.86143 6.59792 1.83208 6.58021 1.80774C6.25366 2.08213 6.42877 2.09223 6.00892 2.13334C6.1267 2.10566 6.16113 2.08847 6.17217 2.45976C6.01392 2.45202 5.79877 2.432 5.66247 2.40119C5.20211 2.29715 5.46167 2.50742 5.35592 2.21544C5.18916 2.12958 5.42466 2.03546 5.60088 1.80723L5.32221 1.5294C5.21898 1.31002 5.27394 1.06677 5.27394 0.501766L4.24083 0.409359C3.96738 0.467926 4.36455 0.6376 3.70675 0.40975C3.39415 0.30143 2.28781 0.251977 2.03545 0.427806C1.77508 0.609111 1.84665 0.949249 1.84665 1.31755L1.75886 1.15772C1.50577 1.35794 1.55681 1.10532 1.52019 1.48115C1.50479 0.958497 1.57551 1.47277 1.35647 1.23632L1.34496 1.80723C1.33294 1.24611 1.39018 1.54421 1.19287 1.39953C1.19287 1.90438 1.22149 1.93031 1.00879 2.13334Z" fill="white" stroke="white" stroke-width="0.213904" stroke-miterlimit="2.61313"/>
</svg>
