<svg width="44" height="29" viewBox="0 0 44 29" fill="none" xmlns="http://www.w3.org/2000/svg">
<path fill-rule="evenodd" clip-rule="evenodd" d="M33.4533 24.5727C33.5807 24.8198 33.6236 25.1468 33.736 25.4226C33.8617 25.7315 34.0211 25.9436 34.1312 26.204L23.3941 26.2104C23.4536 25.8625 23.6384 25.5155 23.7495 25.1344C23.9507 24.444 23.791 24.5506 24.5983 24.5609C27.2972 24.5951 31.0604 24.4315 33.4533 24.5727ZM17.986 25.1744L18.725 25.1614C18.8702 25.383 19.0896 26.0062 19.1548 26.2283L17.6749 26.2111L17.986 25.1744ZM8.91965 25.3258L12.1371 25.3185L12.3903 26.217L8.63588 26.2083L8.91965 25.3258ZM19.5688 21.1274C19.4761 22.1857 19.7615 24.8764 20.9825 24.0029C21.1487 23.884 21.0078 23.9615 21.196 23.8483C20.8181 25.9863 19.2191 25.6828 19.1869 22.8055C19.1831 22.4571 19.2349 21.801 19.3563 21.4803L19.5688 21.1274ZM6.56374 19.754C7.00032 20.1181 6.45679 19.7194 6.98963 19.9168C7.01513 19.9263 7.03887 19.9267 7.0606 19.9368C7.079 19.9453 7.10437 19.9514 7.11832 19.9608C7.14364 19.978 7.35053 19.8499 7.15374 20.1207L6.89021 20.2758L7.18903 20.3272C8.10941 20.4238 7.67857 20.0457 8.5003 20.6257C9.48011 21.3173 10.0997 20.3068 9.94775 23.0608L7.57269 23.0485C7.43507 22.3356 7.35177 21.6187 6.89795 21.2042C6.89834 21.8657 7.16743 22.1839 7.01475 23.0207L6.44247 23.0395C6.41907 22.5834 6.43905 21.4808 6.25295 21.1728C5.87798 21.1736 6.14222 21.3165 6.10826 21.5741C6.06911 21.8703 6.05492 21.7737 5.72007 21.8261L5.91036 22.1255C5.46398 22.0811 5.77722 22.1992 5.59664 21.9113C5.58668 21.8956 5.57907 21.8716 5.56889 21.8556C5.55541 21.8345 5.51673 21.7682 5.50048 21.7489C5.33081 21.5467 5.16781 21.5216 4.93089 21.4996C4.93474 21.6781 5.05055 21.8112 5.01213 21.9083C4.94629 22.0738 5.18869 21.8969 4.90381 21.9894V22.2888C5.23622 22.2352 4.97453 22.1719 5.22398 22.2384L5.35143 22.3064C5.38211 22.3226 5.52666 22.3961 5.52969 22.3975C5.64537 23.1919 5.42056 22.9831 5.42017 23.6218C5.27091 23.7494 5.53829 24.0561 5.25696 23.3773L5.19366 23.7208C5.11229 24.1595 5.23672 24.5188 5.59638 24.6211C5.60742 24.6241 5.63413 24.6309 5.64431 24.6342C5.65509 24.6376 5.68358 24.6525 5.69243 24.6559C5.70202 24.6593 5.72747 24.6711 5.7424 24.6829C5.62839 25.0589 5.67438 25.216 5.33894 25.3182C5.10647 25.114 5.08768 24.9403 5.03528 24.6016C4.97466 25.1347 5.07797 24.5867 4.76803 24.8456C4.71708 24.7253 4.68726 24.4576 4.68567 24.6824L4.52148 24.7908C4.50424 24.8028 4.47006 24.8265 4.44542 24.8456C4.28572 25.1991 4.37427 25.2504 3.99322 25.3447L3.7889 24.9273C3.57799 25.1062 3.75408 24.9701 3.46206 25.0089C3.58625 24.5215 3.46292 24.1465 3.45949 24.1196C3.45607 24.0929 3.45342 24.0735 3.45162 24.0475L3.53333 22.9359C3.55844 22.5624 3.48388 22.57 3.46142 22.2346L3.37701 22.8878C3.38 23.1907 3.40721 23.3178 3.3255 23.5963C3.16067 24.4693 3.4944 25.471 3.68092 26.2094L0.233521 26.2116L0.259834 27.1321L12.0319 27.2712C19.4166 27.3749 27.7961 27.6258 35.136 28.184C36.9457 28.3215 38.7634 28.4971 40.5553 28.7415C41.9905 28.9372 41.7326 29.0419 42.4627 28.0137L43.7574 26.2924C43.5848 26.1403 38.9501 26.2126 38.3419 26.2093C38.509 25.7525 38.7819 25.5945 38.9369 24.5659C39.827 24.549 39.8477 24.7206 40.1099 23.8624C40.2793 23.3079 40.3374 22.672 40.3084 22.0593L38.051 22.0038C38.0211 22.099 38.0177 22.0867 38.0007 22.24L37.9944 23.4664C37.9493 23.7891 37.9974 23.7228 37.7425 23.7645C37.5291 23.4207 37.6836 22.4539 37.6547 21.993L35.6653 21.9175L35.6504 23.1408L31.2635 23.0735C31.1066 22.5986 31.3436 22.1304 31.1128 21.8087L28.8528 21.7395L28.8525 23.4658C28.8047 23.8033 28.833 23.7172 28.601 23.7675C28.4005 23.4535 28.5131 22.2047 28.5266 21.7519C26.7163 21.5681 24.4722 21.7812 22.6194 21.7723C22.4834 21.1846 22.2841 21.2199 23.5403 21.1656L29.0088 21.1617C28.9378 21.1071 29.025 20.9983 28.3565 21.0016L23.5385 20.9535C23.5152 20.948 23.4848 20.9392 23.4593 20.9287L27.7851 20.9288C28.2638 20.9301 28.7015 20.8485 29.0095 20.8467C28.7863 20.7355 28.9978 20.7715 28.6742 20.7932C28.226 20.823 28.4775 20.6327 28.2745 20.9689L27.9075 20.6918C27.8642 20.6536 27.8156 20.7793 27.8307 20.5451L27.9015 20.3579C27.3843 20.1962 27.4992 19.7448 27.0374 19.6379L22.153 19.6162C21.694 18.9071 21.828 18.2657 21.0976 17.8189C19.5793 16.8899 18.7681 19.5517 18.5818 20.7042C18.4751 21.3646 18.4433 22.849 18.3169 23.2781L18.0218 23.2676C17.711 22.4627 18.3649 19.6819 18.51 18.7789C16.4017 19.0849 16.7945 20.1868 16.7975 13.9906C16.7984 12.2718 16.7449 10.487 16.7941 8.77846C17.7388 8.19686 18.4959 7.99164 19.623 7.60289C19.697 7.4713 19.6816 7.38312 20.2476 7.25337C20.6973 7.15018 20.7536 7.33449 20.7654 6.80786L20.4388 6.64459L20.8498 6.57368L20.7644 5.17555C20.7581 4.57503 20.6873 4.47574 20.9838 4.22483L21.0106 4.19558C20.844 3.96567 20.28 4.12879 20.2196 3.73354L20.194 3.54304C20.1178 3.54304 19.9267 3.55117 19.8619 3.53457C19.6079 3.4698 19.6935 3.50621 19.5415 3.38017C20.1217 3.26488 20.5482 3.39181 20.9314 3.50047C21.25 3.59095 20.9633 3.52486 21.1445 3.48243C21.5244 3.3934 21.8955 3.46881 22.4624 3.6813C22.642 3.7486 22.9004 3.78231 23.1332 3.78852C23.4937 3.7981 23.6562 3.83446 23.9003 3.8576L24.6011 3.95112C24.4514 4.31117 24.6429 3.95284 24.467 4.1226C24.1279 4.44978 24.3173 4.07421 24.2593 4.3495L24.2747 4.52203C24.2746 4.52216 24.2191 4.60246 23.9482 4.60413L24.2747 4.60452C24.1643 5.02022 23.9703 4.93046 24.2747 4.93097V6.56263L23.9482 6.56276C24.0909 6.56404 23.9747 6.54638 24.0968 6.61564C24.5322 6.86265 24.4552 6.92294 24.5645 7.21372C24.5683 7.22368 24.5801 7.24973 24.5832 7.25748C24.5862 7.26467 24.597 7.2837 24.6019 7.29765C24.2965 7.36349 24.1883 7.53012 24.1118 7.37961L24.7007 7.47674L24.3467 7.68764C24.3256 7.70086 24.2956 7.71467 24.2755 7.73482C26.7547 7.81302 28.8914 8.19759 31.2635 8.49094C30.9229 7.67297 29.9481 7.57632 29.4928 7.29765C29.4415 6.95896 29.4954 6.70839 29.4681 6.40049C29.4267 5.93264 29.3706 6.15797 29.0924 5.90997C29.1111 5.24759 29.3248 2.38021 28.601 2.45102C28.0984 2.71587 28.3159 2.84614 28.3961 3.32366C28.4582 3.69465 28.4687 6.83707 28.3707 7.14437C27.5216 7.42253 28.3068 5.16537 27.9187 3.90432C26.3311 3.60087 17.0288 2.8256 16.5478 2.5495C16.4759 2.43878 16.5213 2.58201 16.4891 2.38035C16.4735 2.28127 16.4761 2.2615 16.4735 2.16156C16.4593 1.63514 16.5169 1.46077 16.213 0.928623C15.7666 0.911425 15.6064 1.0961 15.7049 1.49157C15.8727 2.16485 15.7853 4.43254 15.799 5.25705L15.4021 5.41799C15.4714 6.62351 15.3594 9.1939 15.338 10.6407L15.3269 11.9555C15.3213 12.0454 15.3206 12.0944 15.2984 12.1798C15.2456 12.3824 15.3198 12.2312 15.2151 12.3632L14.9699 12.3583C14.8059 11.9986 14.9633 3.8159 14.9177 2.52345C14.4745 2.60045 9.18064 6.0487 8.66223 6.37564C6.59301 7.68083 4.49543 8.97115 2.49975 10.2955L5.2346 8.90723C7.58501 7.62518 11.3305 5.6286 13.5267 4.56888C13.5232 4.56931 2.50505 11.3741 2.28255 11.6167L13.079 6.79463C12.3501 7.34637 11.2205 7.86724 10.3872 8.34659C9.46694 8.87605 8.58001 9.37983 7.61398 9.89726L2.07515 12.994L13.0757 8.75625L2.20396 14.1743C2.20781 14.1519 2.24084 14.1391 2.25123 14.1629L2.49996 14.1812C2.52751 14.1768 2.75695 14.0901 2.8011 14.0735L4.82916 13.4008C5.74655 13.0986 6.61654 12.804 7.52268 12.5036C8.45243 12.1952 9.31086 11.8937 10.2155 11.6033C10.9807 11.3576 12.2377 10.8446 12.9278 10.7292C12.4157 11.0755 8.33603 12.7854 7.45077 13.1617C6.50899 13.5621 5.62531 13.963 4.66548 14.3746C4.04773 14.6395 2.28024 15.3246 1.88537 15.6163L12.6204 12.8236C12.1586 13.1704 8.08546 14.5809 7.22022 14.8904C6.29556 15.2211 5.40178 15.5573 4.46343 15.8894C3.90317 16.0875 2.14125 16.6787 1.76204 16.9113C2.53209 16.8549 3.72088 16.5325 4.53085 16.3697C5.90774 16.093 12.0834 14.7097 12.8902 14.6623L1.58972 18.1963L12.7008 16.5916C12.087 16.8988 7.78231 17.8977 6.73512 18.1655C5.73854 18.4203 4.74766 18.6535 3.73581 18.9121C2.77209 19.1581 1.63147 19.3877 0.710528 19.6714C1.42822 19.7326 2.69971 19.535 3.46698 19.4705C4.41359 19.3909 5.38056 19.29 6.31836 19.2034C8.18043 19.0314 10.2308 18.7557 12.0759 18.6902C11.947 18.7898 12.065 18.7437 11.8138 18.8305L9.39045 19.2679C8.46381 19.4322 7.47797 19.6434 6.56374 19.754Z" fill="white"/>
</svg>
