<svg width="45" height="35" viewBox="0 0 45 35" fill="none" xmlns="http://www.w3.org/2000/svg">
<path fill-rule="evenodd" clip-rule="evenodd" d="M35.4337 11.2406C36.4759 11.4837 39.4572 13.8123 40.2961 14.722C41.3949 15.9137 43.1514 18.3574 43.2657 20.0611L42.0084 19.2954C39.7921 18.179 39.2337 18.3025 37.3253 17.6967C36.8833 17.5564 37.0427 17.3062 36.8173 16.1629C36.4781 14.4433 36.0357 12.8606 35.4337 11.2406ZM18.9976 7.47753C19.4602 5.55445 20.7572 1.1456 22.5359 1.1684C24.359 1.19171 25.9731 6.65228 25.982 7.48976C23.4008 7.27924 21.5677 7.34739 18.9976 7.47753ZM28.5421 2.07368C30.246 2.23727 33.9197 4.43488 35.4548 5.60938C35.7943 5.86914 36.0497 6.12232 36.3737 6.40091L37.7285 7.65797C37.8956 7.80385 38.0158 7.96587 38.1481 8.1378L38.9786 9.1002C40.2853 10.6956 42.2257 14.0576 42.6212 16.0811L41.0343 14.1473C40.4799 13.5405 39.8877 13.0895 39.1785 12.4944C38.6217 12.0271 37.7995 11.4699 37.0963 11.0647C36.8419 10.9181 34.8645 9.86577 34.8285 9.82517C34.2124 9.12908 33.4266 5.97694 29.5117 2.81682C29.3607 2.69506 28.6838 2.13686 28.5421 2.07368ZM2.40695 16.125C2.57709 14.3545 5.30526 9.67295 6.78616 8.23603C7.11724 7.91492 7.32798 7.62315 7.6541 7.3082C8.77838 6.22225 9.99831 5.18131 11.5894 4.22546C12.6993 3.55859 15.0865 2.30397 16.4766 2.06362L15.0387 3.18461L12.8889 5.44176C12.3702 6.11337 11.9321 6.69618 11.4455 7.50892C9.25979 11.1596 11.3213 8.98195 7.91242 11.0754C7.10574 11.5708 6.52361 11.9596 5.833 12.5064C4.81837 13.3098 3.08131 14.9613 2.40695 16.125ZM33.4559 9.23406C33.0784 9.18362 32.2559 8.85828 31.8514 8.7198C30.7923 8.35766 29.6346 8.09806 28.5296 7.87454C27.4785 7.66183 27.132 7.80215 26.9824 7.37674C26.8344 6.95543 26.6886 6.182 26.548 5.6961C26.3959 5.16989 26.2319 4.6795 26.037 4.17186C25.8299 3.63197 25.6684 3.25459 25.4091 2.75825C25.1498 2.26199 24.8686 1.87795 24.6463 1.44394C25.6199 1.55089 26.9239 2.21169 27.6505 2.63903C29.0839 3.48185 29.9592 4.3974 31.0273 5.54375C31.6743 6.23825 33.1927 8.50366 33.4559 9.23406ZM11.5654 9.23992C12.0275 7.82131 14.4587 4.86477 15.6521 3.88034C16.8249 2.91286 18.9706 1.56227 20.3885 1.4193C20.2747 1.71992 19.5511 2.7289 18.9579 4.2468C17.1363 8.90618 19.7143 6.96381 14.6692 8.28514C13.6828 8.54345 12.4427 9.06683 11.5654 9.23992ZM0.792969 18.8713C1.16345 18.7249 1.72794 18.3154 2.10206 18.0824C2.81889 17.6359 2.55805 17.6661 3.00965 16.946C3.54248 16.0965 4.20281 15.269 4.80187 14.6585C5.71806 13.7247 8.36135 11.5818 9.59695 11.2453L8.75169 13.77C8.98925 13.7722 9.68631 13.3278 9.84212 13.1681C10.0503 12.9546 10.2431 12.2391 10.3679 11.8981C10.8821 10.4926 10.6755 10.6127 12.0724 10.0952C13.5818 9.53618 16.0339 8.75808 17.7418 8.62991C17.6895 9.16458 17.5394 9.77143 17.4431 10.3298C17.26 11.3906 17.0896 11.3033 18.2463 11.3568L18.7519 8.49374C19.9738 8.17092 25.0213 8.18679 26.2134 8.4878C26.5215 9.0232 26.5143 10.596 26.7847 11.0907L27.6652 10.8539L27.276 8.64689C28.3674 8.64206 33.5237 10.0608 34.0728 10.5806C34.7388 11.2113 35.871 16.0947 36.0675 17.3663C35.4429 17.368 34.1952 17.0617 33.4853 16.9597C32.5594 16.8266 31.6435 16.7144 30.6909 16.6207C30.7053 16.6376 30.7267 16.6415 30.7336 16.6718L31.5556 17.5829C31.8505 17.8212 35.8706 18.1367 36.1712 18.437C36.3656 18.8595 36.4119 20.654 36.4226 21.2166C36.4384 22.0452 36.3441 21.8519 36.7881 22.3133C37.1598 22.6998 37.1217 22.9279 37.3808 23.2743C37.341 22.5184 37.386 21.7271 37.3623 20.9633C37.3379 20.1833 37.2405 19.4229 37.2069 18.6583C38.7076 18.9016 42.8601 20.2138 43.4556 21.7697C44.0565 23.3393 40.8655 24.5233 39.7273 24.9342C39.412 25.048 39.1673 25.119 38.866 25.2112L38.0587 25.4714C38.0417 25.4799 38.0147 25.498 38.001 25.5052C37.9871 25.5129 37.9611 25.5274 37.943 25.5411C38.1768 25.6793 39.0316 26.1337 39.2515 26.1078C39.7538 26.0488 41.4963 25.2623 42.0038 25.0108C42.4085 24.8103 42.9491 24.399 43.2754 24.2843C42.8463 26.6483 41.533 28.0505 40.2586 29.6222C40.3324 29.8475 40.5236 30.1385 40.7419 30.4098C41.5569 29.7487 42.3561 28.4051 42.6576 28.1801C42.2398 29.1753 41.9973 30.2309 41.4609 31.2393C41.2976 31.5461 40.8062 32.4275 40.7461 32.7324C40.6787 33.0743 40.4991 34.3572 40.5064 34.6626C41.0528 34.2153 42.3629 31.6135 42.7639 30.6652C43.3845 29.1975 43.9111 27.5244 44.1859 25.7975C45.0455 20.3963 43.981 15.0161 41.1758 10.5787L39.7618 8.56976C38.9074 7.51085 37.8796 6.39312 36.8289 5.53806C36.2268 5.04788 35.7146 4.58054 35.0424 4.14165C33.7011 3.26597 32.588 2.58674 30.9313 1.88548C24.1611 -0.980488 16.3467 0.0442429 10.7948 3.59355C10.0212 4.08818 8.80627 4.96095 8.13709 5.58657C7.84486 5.85968 7.55707 6.0605 7.25863 6.34234C4.14239 9.28548 1.37675 14.1638 0.792969 18.8713Z" fill="white"/>
</svg>
