<svg width="20" height="11" viewBox="0 0 20 11" fill="none" xmlns="http://www.w3.org/2000/svg">
<path fill-rule="evenodd" clip-rule="evenodd" d="M16.2053 7.07257C16.6873 6.95326 17.6147 6.9485 17.9268 7.18465L18.0051 8.13525L16.2627 8.14205L16.2053 7.07257ZM7.74595 6.57926C7.84152 5.8605 8.65242 6.09927 9.39873 6.12344L13.5589 6.22248C14.2796 6.24323 15.002 6.05127 15.2342 6.69931L7.74595 6.57926ZM15.1494 5.52049C15.0339 5.61093 15.1411 5.56391 14.9415 5.62124C14.8321 5.65277 14.8195 5.64793 14.7062 5.65448C13.8162 5.70552 7.91245 5.46774 7.76451 5.439C7.756 5.04789 7.9332 4.98398 8.33666 4.97055L13.4366 5.1619C14.0587 5.18624 14.8748 5.05165 15.1494 5.52049ZM13.4683 4.10334C14.1472 4.12905 14.8798 4.00181 15.1023 4.54111C14.8224 4.67621 8.21136 4.42954 7.70252 4.28438C7.78851 3.90834 7.86299 3.8653 8.3284 3.85559L13.4683 4.10334ZM14.3746 3.10008C14.793 3.19432 14.9548 3.12507 15.0336 3.55729C14.2363 3.5785 8.13752 3.30577 7.75215 3.17332C7.57871 2.61028 8.47466 2.75848 8.9876 2.78175L9.72262 2.58179C9.44699 2.5788 9.01756 2.59793 8.78317 2.50586L8.49867 2.3373C8.49824 2.13794 8.51283 2.30624 8.46641 2.30915C7.86213 2.348 8.03697 2.23352 8.04959 2.01037C7.87291 1.92631 7.64202 1.92887 7.35595 1.92887C7.43633 1.35791 7.47116 1.65734 7.51929 1.43907L7.19236 2.092C7.15608 2.11938 6.69806 2.24477 6.41721 2.21469C6.41978 1.93906 6.38992 1.93033 6.53983 1.76601C6.10141 1.73568 6.21225 1.60135 6.22718 1.58873L6.25349 1.76639C6.25648 1.78153 6.27967 1.85575 6.27206 1.99595C6.25118 2.38303 6.23275 2.09319 6.22098 2.11757C6.38449 2.52198 6.50393 5.3358 6.28844 5.65666C6.17178 5.74154 6.44451 5.7921 6.05777 5.67754C6.0283 5.66877 5.78697 5.53564 5.73555 5.50749C4.32883 4.74013 1.17974 4.34539 0.268677 5.19001C1.21105 5.29927 1.74086 5.19984 2.32973 5.81113C2.95125 6.45631 2.10843 7.82709 2.98291 7.75774C3.36306 6.75522 2.16831 6.20832 4.90256 6.44747C5.76408 6.52276 5.30141 7.14025 5.53816 7.74406C6.04866 7.92631 9.5805 7.84566 10.4573 7.85511C11.3696 7.86508 14.8721 7.85054 15.4572 8.0351C15.5276 8.19202 15.583 8.28356 15.5629 8.49931L6.78128 8.3471C6.80006 8.73213 6.78598 9.01435 6.90093 9.35766L6.83013 9.54487C6.81507 9.77905 6.86371 9.65341 6.907 9.69161L7.27398 9.96871C7.47698 9.63245 7.22547 9.82282 7.67368 9.793C7.99732 9.77131 7.78572 9.73529 8.00895 9.84648C7.70093 9.84819 7.26329 9.92968 6.78453 9.92857L2.45875 9.92844C2.48425 9.93901 2.51467 9.94774 2.53794 9.9533L7.35595 10.0013C8.02448 9.99792 7.9373 10.1068 8.00823 10.1615L19.2783 10.4785C19.2749 8.92095 17.5567 9.20062 16.7328 9.12918C16.3496 9.09593 16.4531 9.17828 16.3252 8.94859C16.5729 8.52053 17.9775 9.02393 18.3197 8.73653C18.5947 8.32078 18.3897 6.66692 18.1019 6.36412C17.9274 6.18042 17.5402 6.04361 17.216 5.94227C15.839 5.51163 16.0914 6.4466 15.9061 3.50607C15.8451 2.53824 15.8812 2.1657 14.9789 1.9879C13.9222 1.77982 11.7168 1.49123 10.8862 1.18552L10.814 0.786877C10.8132 0.787732 10.5733 0.883905 10.702 1.17092C10.7849 1.35599 11.0121 1.30893 11.0107 1.58046C11.0107 1.58688 10.9466 1.76057 10.9465 1.84797C11.1997 1.54312 11.1779 1.98149 11.1106 1.43993C11.7847 1.62547 11.822 1.59004 12.3796 1.6525C12.6711 1.68523 13.3263 1.92413 13.5585 2.01084C13.4295 2.12023 13.508 2.11745 13.2739 2.19181C13.2475 2.20015 13.2773 2.29367 12.948 2.15733C12.1669 1.83429 12.3792 2.31728 12.0892 2.01037C12.1241 2.27035 12.1506 2.00694 12.2529 2.25605L13.7856 2.32738C14.0931 2.42706 13.6875 2.36943 14.0502 2.40947L14.2611 2.40425C14.8325 2.3026 14.031 2.26598 14.7828 2.17443C14.7503 2.42158 14.7566 2.5995 14.6229 2.82166C14.3832 3.22025 14.55 2.79265 14.3746 3.10008Z" fill="white" stroke="white" stroke-width="0.213904" stroke-miterlimit="2.61313"/>
</svg>
