<svg width="8" height="7" viewBox="0 0 8 7" fill="none" xmlns="http://www.w3.org/2000/svg">
<path fill-rule="evenodd" clip-rule="evenodd" d="M3.32467 4.59625C3.40638 4.3177 3.379 4.1906 3.37617 3.88766L3.46058 3.23453C3.48304 3.56993 3.55761 3.56231 3.5325 3.93579L3.45079 5.04736C3.4525 5.07341 3.45528 5.09284 3.45866 5.11949C3.46208 5.14644 3.5855 5.52138 3.46123 6.00878C3.75325 5.96997 3.57716 6.10615 3.78807 5.92715C3.68753 5.33781 3.5055 4.44904 3.76976 3.97327C3.79072 4.4741 3.84094 5.71637 4.35876 5.59183C4.50995 5.70691 4.40351 5.56493 4.44458 5.84553C4.46923 5.82636 4.50341 5.80274 4.52065 5.79072L4.68484 5.68232C4.68655 5.45746 4.71624 5.72523 4.7672 5.84553C5.07714 5.58662 4.97382 6.13464 5.03444 5.60155C4.92411 5.24852 4.88176 4.18512 5.01164 3.85091C5.14627 4.15431 4.98011 4.37456 5.19282 4.72065L5.25614 4.3772C5.53746 5.05596 5.27008 4.74926 5.41934 4.62169C5.41973 3.98298 5.64453 4.1918 5.52886 3.39736C5.52586 3.39608 5.38127 3.32254 5.35059 3.30632L5.22314 3.23825C4.97369 3.17181 5.23539 3.23526 4.90298 3.28874V2.98931C5.18786 2.89677 4.94546 3.07372 5.0113 2.9082C5.04971 2.81105 4.93404 2.67799 4.93006 2.49951C5.16698 2.52146 5.32997 2.54658 5.49964 2.74885C5.51589 2.7681 5.55457 2.83445 5.56805 2.85554C5.57823 2.87154 5.58585 2.89545 5.59582 2.91119C5.7764 3.19911 5.46314 3.08099 5.90952 3.12536L5.71923 2.82598C6.05408 2.77357 6.06829 2.87021 6.10743 2.57395C6.1414 2.31637 5.87714 2.1734 6.25211 2.17267L6.08159 1.60408C6.39607 1.38166 6.88767 1.54041 7.1882 1.32706L6.88937 1.27569L7.1529 1.12056C7.34969 0.849757 7.14281 0.97793 7.11748 0.960732C7.10353 0.951278 7.07817 0.945207 7.05977 0.936736C7.03804 0.92664 7.01429 0.926163 6.98879 0.916708C6.45596 0.719275 6.99949 1.118 6.56291 0.753852C5.43684 1.10662 1.0166 1.54717 0.424561 1.92651L1.79487 2.11375L1.89408 3.23085L3.22854 3.23693C3.25716 3.6386 3.15911 4.30628 3.32467 4.59625Z" fill="white" stroke="white" stroke-width="0.0924064" stroke-miterlimit="2.61313"/>
</svg>
