<svg width="17" height="7" viewBox="0 0 17 7" fill="none" xmlns="http://www.w3.org/2000/svg">
<path fill-rule="evenodd" clip-rule="evenodd" d="M1.00921 3.13293C1.22192 2.92989 1.19329 2.90397 1.19329 2.39911C1.3906 2.5438 1.33336 2.2457 1.34538 2.80681L1.3569 2.2359C1.57593 2.47235 1.50521 1.95808 1.52061 2.48074C1.55723 2.10491 1.50619 2.35752 1.75928 2.15731L1.84707 2.31714C1.84707 1.94884 1.7755 1.6087 2.03587 1.42739C2.28823 1.25156 3.39457 1.30102 3.70717 1.40934C4.36497 1.63719 3.9678 1.46751 4.24125 1.40895L5.27436 1.50135C5.27436 2.06636 5.2194 2.30961 5.32263 2.52899L5.6013 2.80681C5.42509 3.03505 5.18958 3.12916 5.35634 3.21503C5.46209 3.507 5.20253 3.29674 5.6629 3.40078C5.7992 3.43158 6.01434 3.45161 6.17259 3.45935C6.16155 3.08805 6.12712 3.10525 6.00934 3.13293C6.42919 3.09182 6.25408 3.08172 6.58063 2.80732C6.59834 2.83167 6.6179 2.86102 6.62941 2.88335L7.31531 3.21503L7.10697 3.75659C6.97319 4.60707 7.20822 3.64261 7.38987 4.19607C7.49477 4.51572 7.23236 4.49537 7.07082 4.56087C7.74093 4.6398 7.82124 4.66452 8.22115 5.11735C8.23291 5.09297 8.25135 5.3828 8.27222 4.99572C8.27984 4.85553 8.2567 4.78131 8.25366 4.76617C8.05806 4.57866 8.19389 4.6273 7.96869 4.43971L8.31856 3.99612C8.36827 3.88853 8.37204 3.97986 8.35082 3.82765L8.31018 3.5713C8.35638 2.91051 8.2282 3.16955 8.3713 2.75321C8.44407 2.54187 8.44091 2.7456 8.45802 2.39877C8.20104 2.31133 8.27975 2.49309 8.21353 2.0723H8.45802C8.12548 1.61853 8.13143 2.30273 8.13143 1.41926C8.66632 1.56211 8.0863 1.603 8.62123 1.74572C8.6934 1.5523 8.57224 1.63877 8.78444 1.5826C8.7141 1.47762 8.60862 1.38375 8.56361 1.29301C8.46432 1.09246 8.50141 1.4673 8.52917 1.14786C8.55916 0.802362 8.40052 1.15671 8.62123 1.01156C8.77015 0.912136 8.93909 0.952995 9.01365 0.968396C9.03791 0.973487 9.05794 0.982684 9.08156 0.989272C9.10449 0.995689 9.12378 1.00549 9.14606 1.01289C9.94606 1.27655 9.46076 1.33691 9.92703 1.34675C10.0517 1.34932 10.315 1.29592 10.3548 1.29545C10.8745 1.29062 10.6081 1.3242 10.687 1.36699C10.8137 1.43565 10.8539 1.42388 10.9042 1.66627C10.9205 1.74486 10.9064 1.97079 10.9064 2.07179C10.7336 2.13669 10.7913 2.15209 10.4983 2.15389C10.8382 2.31278 10.5469 1.92703 10.6145 2.32865C10.656 2.5752 10.5266 2.48907 10.4941 2.89267C10.4706 3.18443 10.4984 3.64018 10.4984 3.94952C10.4844 5.14315 10.2986 4.28656 10.05 5.01015C10.0374 5.2333 9.86256 5.34777 10.4668 5.30893C10.5133 5.30593 10.4985 5.13772 10.4991 5.33708L10.7836 5.50564C11.018 5.5977 11.4474 5.57853 11.7231 5.58157L10.988 5.78153L16.375 6.09985C16.5504 5.79243 16.3836 6.22003 16.6234 5.82144C16.757 5.59928 16.7507 5.42135 16.7832 5.17421C16.0315 5.26576 16.8329 5.30238 16.2615 5.40403L16.0506 5.40925C15.6879 5.36921 16.0935 5.42683 15.786 5.32715L14.2533 5.25583C14.1511 5.00685 14.1245 5.27013 14.0896 5.01015C14.3797 5.31706 14.1673 4.83407 14.9484 5.15711C15.2777 5.29345 15.2479 5.19993 15.2743 5.19159C15.5084 5.11723 15.43 5.12001 15.5589 5.01062C15.3268 4.9239 14.6715 4.68501 14.38 4.65228C13.8224 4.58982 13.7851 4.62525 13.1111 4.43971C13.1783 4.98127 13.2001 4.5429 12.9469 4.84775C12.947 4.76035 13.0111 4.58666 13.0111 4.58024C13.0124 4.30871 12.7853 4.35577 12.7024 4.1707C12.5737 3.88368 12.8136 3.78751 12.8145 3.78665C12.2885 2.27311 12.723 1.33173 11.6989 1.11706C9.80785 0.720783 2.03189 0.0466404 1.02744 0.439068C0.839842 0.992523 0.987991 2.43441 1.00921 3.13293Z" fill="white" stroke="white" stroke-width="0.0924064" stroke-miterlimit="2.61313"/>
</svg>
