<svg width="4" height="4" viewBox="0 0 4 4" fill="none" xmlns="http://www.w3.org/2000/svg">
<path d="M0.926758 2.154C0.926758 2.72397 1.21643 3.13021 1.66563 3.35494C1.81019 3.42719 1.96527 3.46784 2.12219 3.479H2.30191C2.61455 3.45719 2.92159 3.32221 3.15457 3.09154L3.2945 2.91961C3.43846 2.70181 3.51607 2.46266 3.52479 2.22279V2.13269C3.51641 1.90228 3.44403 1.67345 3.30482 1.46464C3.26054 1.39828 3.22028 1.34215 3.16329 1.28572C2.94404 1.06904 2.62752 0.889664 2.28643 0.889664C2.00373 0.889664 1.79345 0.926792 1.56244 1.06639C1.32535 1.2097 1.17108 1.39002 1.04509 1.64008C0.981565 1.76598 0.926758 1.96799 0.926758 2.154Z" stroke="white" stroke-width="0.213904" stroke-miterlimit="2.61313"/>
</svg>
