<svg width="4" height="6" viewBox="0 0 4 6" fill="none" xmlns="http://www.w3.org/2000/svg">
<path fill-rule="evenodd" clip-rule="evenodd" d="M1.25396 4.76655L1.22766 4.58889C1.21273 4.60151 1.10188 4.73584 1.5403 4.76617C1.3904 4.93049 1.42021 4.93922 1.41768 5.21486C1.69854 5.24493 2.15656 5.11954 2.19283 5.09216L2.51976 4.43923C2.47163 4.6575 2.43681 4.35808 2.35642 4.92903C2.6425 4.92903 2.87338 4.92647 3.05007 5.01054C3.29867 4.28694 3.48447 5.14353 3.49841 3.94991C3.49841 3.64056 3.47064 3.18482 3.49413 2.89305C3.5266 2.48946 3.65601 2.57558 3.61452 2.32904C3.54697 1.92741 3.83827 2.31316 3.49837 2.15427C3.79134 2.15256 3.73362 2.13708 3.90641 2.07218C3.90667 1.97117 3.92074 1.74525 3.90427 1.66666C3.85396 1.42426 3.81371 1.43603 3.68708 1.36737C3.60815 1.32459 3.87459 1.291 3.3548 1.29584C3.31501 1.29627 3.05173 1.3497 2.92707 1.34713C2.4608 1.33729 2.94611 1.27693 2.14611 1.01328C2.12382 1.00587 2.10453 0.996075 2.0816 0.989657C2.05799 0.983069 2.03797 0.973872 2.01371 0.968781C1.93914 0.95338 1.7702 0.912521 1.62128 1.01194C1.40058 1.1571 1.55921 0.802747 1.52922 1.14824C1.50145 1.46769 1.46436 1.09284 1.56366 1.2934C1.60866 1.38414 1.71416 1.478 1.78449 1.58298C1.5723 1.63916 1.69346 1.55269 1.62128 1.7461C1.08635 1.60338 1.66638 1.56249 1.13149 1.41965C1.13149 2.30311 1.12554 1.61891 1.45808 2.07269H1.21358C1.27981 2.49348 1.20109 2.31171 1.45808 2.39916C1.44096 2.74598 1.44413 2.54226 1.37136 2.75359C1.22826 3.16994 1.35642 2.91089 1.31022 3.57169L1.35086 3.82803C1.37208 3.98025 1.36831 3.88891 1.3186 3.9965L0.96875 4.4401C1.19395 4.62769 1.05837 4.57904 1.25396 4.76655Z" fill="white" stroke="white" stroke-width="0.0924064" stroke-miterlimit="2.61313"/>
</svg>
