<svg width="19" height="18" viewBox="0 0 19 18" fill="none" xmlns="http://www.w3.org/2000/svg">
<path d="M11.9026 3.04834C12.8331 3.29807 13.6816 3.78816 14.3628 4.46943C15.0441 5.15069 15.5342 5.99916 15.7839 6.92968" stroke="#002244" stroke-width="1.0972" stroke-linecap="round" stroke-linejoin="round"/>
<path d="M11.3334 5.16699C11.893 5.31563 12.4034 5.60956 12.8129 6.01902C13.2224 6.42847 13.5163 6.93889 13.6649 7.49854" stroke="#002244" stroke-width="1.0972" stroke-linecap="round" stroke-linejoin="round"/>
<path d="M7.31491 8.8632C7.87943 10.029 8.8221 10.9692 9.98933 11.5308C10.0754 11.5715 10.1707 11.5892 10.2657 11.582C10.3606 11.5748 10.4521 11.5429 10.5311 11.4896L12.2454 10.3444C12.3212 10.293 12.4087 10.2617 12.4999 10.2533C12.591 10.2449 12.6828 10.2597 12.7666 10.2964L15.9759 11.6748C16.0856 11.7204 16.1772 11.8009 16.2367 11.9037C16.2962 12.0066 16.3202 12.1261 16.3051 12.2439C16.2034 13.0379 15.8159 13.7675 15.215 14.2964C14.6142 14.8252 13.8413 15.1171 13.0409 15.1172C10.5675 15.1172 8.1953 14.1347 6.4463 12.3857C4.6973 10.6367 3.71472 8.26451 3.71472 5.79104C3.7149 4.99064 4.00672 4.21772 4.53558 3.61691C5.06444 3.01611 5.79409 2.6286 6.58801 2.52688C6.70585 2.51174 6.8254 2.53576 6.92824 2.59524C7.03109 2.65471 7.11153 2.74635 7.15718 2.85604L8.53554 6.0722C8.57139 6.15473 8.58638 6.24481 8.57921 6.3345C8.57203 6.42419 8.54291 6.51073 8.4944 6.58651L7.34919 8.32832C7.29821 8.4071 7.26829 8.49764 7.26228 8.59129C7.25628 8.68494 7.2744 8.77856 7.31491 8.8632V8.8632Z" stroke="#002244" stroke-width="1.0972" stroke-linecap="round" stroke-linejoin="round"/>
</svg>
