<svg width="26" height="26" viewBox="0 0 26 26" fill="none" xmlns="http://www.w3.org/2000/svg">
<path d="M9.42718 12.3945C10.2407 14.0546 11.5992 15.3936 13.2813 16.1933C13.4053 16.2514 13.5426 16.2765 13.6795 16.2662C13.8163 16.2559 13.9482 16.2106 14.0619 16.1347L16.5325 14.5038C16.6417 14.4307 16.7678 14.386 16.8991 14.3741C17.0305 14.3621 17.1627 14.3833 17.2836 14.4355L21.9084 16.3984C22.0665 16.4634 22.1986 16.5779 22.2843 16.7244C22.37 16.8709 22.4046 17.0411 22.3828 17.2089C22.2362 18.3395 21.6778 19.3786 20.812 20.1317C19.9461 20.8849 18.8323 21.3005 17.6788 21.3007C14.1144 21.3007 10.6959 19.9014 8.17545 17.4107C5.65499 14.92 4.23901 11.5419 4.23901 8.01947C4.23927 6.87962 4.65981 5.77893 5.42194 4.92333C6.18407 4.06774 7.23556 3.51589 8.37967 3.37103C8.54948 3.34948 8.72176 3.38368 8.86997 3.46839C9.01818 3.55309 9.1341 3.68358 9.19989 3.83978L11.1862 8.41986C11.2379 8.53739 11.2595 8.66567 11.2491 8.79339C11.2388 8.92112 11.1968 9.04437 11.1269 9.15228L9.4766 11.6328C9.40312 11.7449 9.36 11.8739 9.35135 12.0072C9.3427 12.1406 9.36881 12.2739 9.42718 12.3945V12.3945Z" stroke="white" stroke-width="1.5625" stroke-linecap="round" stroke-linejoin="round"/>
</svg>
