<svg width="62" height="62" viewBox="0 0 62 62" fill="none" xmlns="http://www.w3.org/2000/svg">
<path d="M31 5.8125C26.0184 5.8125 21.1486 7.28972 17.0066 10.0574C12.8645 12.825 9.63618 16.7587 7.7298 21.3612C5.82341 25.9636 5.32462 31.0279 6.29648 35.9138C7.26835 40.7997 9.66722 45.2877 13.1898 48.8103C16.7123 52.3328 21.2003 54.7317 26.0862 55.7035C30.9721 56.6754 36.0364 56.1766 40.6388 54.2702C45.2413 52.3638 49.175 49.1355 51.9427 44.9934C54.7103 40.8514 56.1875 35.9816 56.1875 31C56.1805 24.322 53.5245 17.9196 48.8025 13.1975C44.0804 8.47549 37.678 5.81955 31 5.8125ZM31 46.5C30.4252 46.5 29.8633 46.3296 29.3854 46.0102C28.9075 45.6909 28.535 45.237 28.315 44.7059C28.095 44.1749 28.0375 43.5905 28.1496 43.0268C28.2617 42.463 28.5385 41.9452 28.945 41.5387C29.3514 41.1323 29.8693 40.8555 30.433 40.7433C30.9968 40.6312 31.5811 40.6888 32.1122 40.9087C32.6432 41.1287 33.0971 41.5012 33.4165 41.9791C33.7358 42.4571 33.9063 43.0189 33.9063 43.5938C33.9063 44.3645 33.6001 45.1037 33.055 45.6488C32.51 46.1938 31.7708 46.5 31 46.5ZM32.9375 34.7006V34.875C32.9375 35.3889 32.7334 35.8817 32.37 36.245C32.0067 36.6084 31.5139 36.8125 31 36.8125C30.4862 36.8125 29.9933 36.6084 29.63 36.245C29.2666 35.8817 29.0625 35.3889 29.0625 34.875V32.9375C29.0625 32.4236 29.2666 31.9308 29.63 31.5675C29.9933 31.2041 30.4862 31 31 31C34.2042 31 36.8125 28.8203 36.8125 26.1562C36.8125 23.4922 34.2042 21.3125 31 21.3125C27.7959 21.3125 25.1875 23.4922 25.1875 26.1562V27.125C25.1875 27.6389 24.9834 28.1317 24.62 28.495C24.2567 28.8584 23.7639 29.0625 23.25 29.0625C22.7362 29.0625 22.2433 28.8584 21.88 28.495C21.5166 28.1317 21.3125 27.6389 21.3125 27.125V26.1562C21.3125 21.3488 25.6574 17.4375 31 17.4375C36.3427 17.4375 40.6875 21.3488 40.6875 26.1562C40.6875 30.3655 37.355 33.8893 32.9375 34.7006Z" fill="#A6B4C0"/>
</svg>
