<svg width="19" height="18" viewBox="0 0 19 18" fill="none" xmlns="http://www.w3.org/2000/svg">
<path d="M9.71711 15.3988C13.3529 15.3988 16.3003 12.4514 16.3003 8.81562C16.3003 5.17982 13.3529 2.23242 9.71711 2.23242C6.08131 2.23242 3.13391 5.17982 3.13391 8.81562C3.13391 12.4514 6.08131 15.3988 9.71711 15.3988Z" stroke="#002244" stroke-width="1.0972" stroke-linecap="round" stroke-linejoin="round"/>
<path d="M7.24831 8.26689C7.70279 8.26689 8.07121 7.89847 8.07121 7.44399C8.07121 6.98952 7.70279 6.62109 7.24831 6.62109C6.79384 6.62109 6.42542 6.98952 6.42542 7.44399C6.42542 7.89847 6.79384 8.26689 7.24831 8.26689Z" fill="#002244"/>
<path d="M12.1857 8.26689C12.6402 8.26689 13.0086 7.89847 13.0086 7.44399C13.0086 6.98952 12.6402 6.62109 12.1857 6.62109C11.7312 6.62109 11.3628 6.98952 11.3628 7.44399C11.3628 7.89847 11.7312 8.26689 12.1857 8.26689Z" fill="#002244"/>
<path d="M12.5698 10.4614C12.2798 10.9611 11.8637 11.3758 11.363 11.664C10.8624 11.9523 10.2948 12.104 9.7171 12.104C9.13939 12.104 8.57182 11.9523 8.07118 11.664C7.57054 11.3758 7.15439 10.9611 6.86438 10.4614" stroke="#002244" stroke-width="1.0972" stroke-linecap="round" stroke-linejoin="round"/>
</svg>
