<svg width="19" height="18" viewBox="0 0 19 18" fill="none" xmlns="http://www.w3.org/2000/svg">
<path d="M12.554 5.56886H15.4907C15.6006 5.56814 15.7081 5.60068 15.7991 5.6622C15.8902 5.72372 15.9605 5.81134 16.0008 5.91355L16.966 8.32636" stroke="#002244" stroke-width="1.103" stroke-linecap="round" stroke-linejoin="round"/>
<path d="M1.52393 9.98096H12.5539" stroke="#002244" stroke-width="1.103" stroke-linecap="round" stroke-linejoin="round"/>
<path d="M13.3811 14.9443C14.2948 14.9443 15.0356 14.2035 15.0356 13.2898C15.0356 12.376 14.2948 11.6353 13.3811 11.6353C12.4673 11.6353 11.7266 12.376 11.7266 13.2898C11.7266 14.2035 12.4673 14.9443 13.3811 14.9443Z" stroke="#002244" stroke-width="1.103" stroke-miterlimit="10"/>
<path d="M5.1086 14.9443C6.02236 14.9443 6.7631 14.2035 6.7631 13.2898C6.7631 12.376 6.02236 11.6353 5.1086 11.6353C4.19485 11.6353 3.4541 12.376 3.4541 13.2898C3.4541 14.2035 4.19485 14.9443 5.1086 14.9443Z" stroke="#002244" stroke-width="1.103" stroke-miterlimit="10"/>
<path d="M11.7267 13.2896H6.76318" stroke="#002244" stroke-width="1.103" stroke-linecap="round" stroke-linejoin="round"/>
<path d="M3.45418 13.2898H2.07543C1.92916 13.2898 1.78888 13.2317 1.68546 13.1283C1.58203 13.0249 1.52393 12.8846 1.52393 12.7383V5.01732C1.52393 4.87105 1.58203 4.73078 1.68546 4.62735C1.78888 4.52392 1.92916 4.46582 2.07543 4.46582H12.5539V11.8559" stroke="#002244" stroke-width="1.103" stroke-linecap="round" stroke-linejoin="round"/>
<path d="M12.554 8.32617H16.966V12.7382C16.966 12.8844 16.9079 13.0247 16.8044 13.1281C16.701 13.2316 16.5607 13.2897 16.4145 13.2897H15.0357" stroke="#002244" stroke-width="1.103" stroke-linecap="round" stroke-linejoin="round"/>
</svg>
