<svg width="32" height="32" viewBox="0 0 32 32" fill="none" xmlns="http://www.w3.org/2000/svg">
<path d="M16 0.25C11.8384 0.300208 7.86147 1.9757 4.91858 4.91858C1.9757 7.86147 0.300208 11.8384 0.25 16C0.300208 20.1616 1.9757 24.1385 4.91858 27.0814C7.86147 30.0243 11.8384 31.6998 16 31.75C20.1616 31.6998 24.1385 30.0243 27.0814 27.0814C30.0243 24.1385 31.6998 20.1616 31.75 16C31.6998 11.8384 30.0243 7.86147 27.0814 4.91858C24.1385 1.9757 20.1616 0.300208 16 0.25ZM25 17.125H17.125V25H14.875V17.125H7V14.875H14.875V7H17.125V14.875H25V17.125Z" fill="#30577E"/>
</svg>
