<svg width="23" height="23" viewBox="0 0 23 23" fill="none" xmlns="http://www.w3.org/2000/svg">
<path d="M9.85926 16.5891L18.5412 7.90711L16.8171 6.18303L9.85926 13.1409L6.34954 9.63118L4.62546 11.3553L9.85926 16.5891ZM2.96296 22.5002C2.28565 22.5002 1.70562 22.2588 1.22288 21.7761C0.740141 21.2933 0.499181 20.7137 0.500002 20.0372V2.79646C0.500002 2.11915 0.741372 1.53912 1.22411 1.05638C1.70685 0.573637 2.28647 0.332677 2.96296 0.333498H20.2037C20.881 0.333498 21.461 0.574869 21.9438 1.05761C22.4265 1.54035 22.6675 2.11997 22.6667 2.79646V20.0372C22.6667 20.7145 22.4253 21.2945 21.9426 21.7773C21.4598 22.26 20.8802 22.501 20.2037 22.5002H2.96296ZM2.96296 20.0372H20.2037V2.79646H2.96296V20.0372Z" fill="white"/>
</svg>
