<svg width="27" height="27" viewBox="0 0 27 27" fill="none" xmlns="http://www.w3.org/2000/svg">
<path d="M13.4997 0.583496C10.945 0.583496 8.4477 1.34105 6.32356 2.76035C4.19943 4.17965 2.54387 6.19696 1.56624 8.55717C0.588604 10.9174 0.332811 13.5145 0.831204 16.0201C1.3296 18.5257 2.55979 20.8272 4.36622 22.6336C6.17265 24.4401 8.47418 25.6702 10.9798 26.1686C13.4854 26.667 16.0825 26.4112 18.4427 25.4336C20.8029 24.456 22.8202 22.8004 24.2395 20.6763C25.6588 18.5521 26.4163 16.0548 26.4163 13.5002C26.4163 11.8039 26.0822 10.1243 25.4331 8.55717C24.784 6.99005 23.8326 5.56612 22.6331 4.3667C21.4337 3.16728 20.0098 2.21584 18.4427 1.56672C16.8756 0.917596 15.1959 0.583496 13.4997 0.583496ZM13.4997 23.8335C11.4559 23.8335 9.4581 23.2275 7.75879 22.092C6.05948 20.9566 4.73503 19.3427 3.95293 17.4546C3.17082 15.5664 2.96619 13.4887 3.3649 11.4842C3.76361 9.47976 4.74777 7.63854 6.19291 6.19339C7.63805 4.74825 9.47928 3.7641 11.4837 3.36538C13.4882 2.96667 15.5659 3.1713 17.4541 3.95341C19.3422 4.73551 20.9561 6.05996 22.0915 7.75927C23.227 9.45858 23.833 11.4564 23.833 13.5002C23.833 16.2407 22.7443 18.8691 20.8064 20.8069C18.8686 22.7448 16.2403 23.8335 13.4997 23.8335Z" fill="#2A4764" fill-opacity="0.58"/>
</svg>
