<svg width="24" height="24" viewBox="0 0 24 24" fill="none" xmlns="http://www.w3.org/2000/svg">
<path d="M7.2 2H9.8C13 2 15 4 15 7.2V11.25H8.75C8.34 11.25 8 11.59 8 12C8 12.41 8.34 12.75 8.75 12.75H15V16.8C15 20 13 22 9.8 22H7.21C4.01 22 2.01 20 2.01 16.8V7.2C2 4 4 2 7.2 2Z" fill="#A3A5B0"/>
<path d="M19.4401 11.2498L17.3701 9.17984C17.2201 9.02984 17.1501 8.83984 17.1501 8.64984C17.1501 8.45984 17.2201 8.25984 17.3701 8.11984C17.6601 7.82984 18.1401 7.82984 18.4301 8.11984L21.7801 11.4698C22.0701 11.7598 22.0701 12.2398 21.7801 12.5298L18.4301 15.8798C18.1401 16.1698 17.6601 16.1698 17.3701 15.8798C17.0801 15.5898 17.0801 15.1098 17.3701 14.8198L19.4401 12.7498H15.0001V11.2498H19.4401Z" fill="#A3A5B0"/>
</svg>
